<svg width="216" height="74" viewBox="0 0 216 74" fill="none" xmlns="http://www.w3.org/2000/svg">
<path d="M175.487 74L165.444 74C150.848 73.9998 139.017 62.1673 139.017 47.5713L139.017 26.4287C139.017 11.8327 150.848 0.000197278 165.444 -1.27009e-06L175.487 -1.34718e-06L175.487 74ZM188.698 -1.4486e-06C203.294 -9.22638e-07 215.127 11.8326 215.127 26.4287L215.127 47.5713C215.127 55.1558 211.931 61.9928 206.813 66.8125L214.6 74L178.656 74L178.656 -1.37151e-06L188.698 -1.4486e-06ZM145.091 73.7354L72.1475 73.7354L72.1475 1.05664L145.091 73.7354ZM69.2432 73.4707L5.64115e-07 73.4707L3.08479e-07 40.1709L69.2432 40.1709L69.2432 73.4707ZM111.681 0.528319C125.756 0.528319 137.167 11.9393 137.167 26.0146C137.167 34.3836 133.058 42.2194 126.174 46.9785L123.786 48.6289L75.8525 0.52832L111.681 0.528319ZM42.8145 -3.28679e-07C57.4105 9.31502e-05 69.2432 11.8327 69.2432 26.4287L69.2432 37.5283L2.88192e-07 37.5283L2.02982e-07 26.4287C9.09309e-08 11.8326 11.8326 -9.08368e-08 26.4287 -2.02888e-07L42.8145 -3.28679e-07Z" fill="black"/>
</svg>
