<svg width="1705" height="311" viewBox="0 0 1705 311" fill="none" xmlns="http://www.w3.org/2000/svg">
<path fill-rule="evenodd" clip-rule="evenodd" d="M469.38 49.9642C443.439 53.5071 423.731 62.9811 406.411 80.2211C386.402 100.166 376.311 125.251 376.311 155.429C376.311 196.773 397.79 232.408 433.285 249.885C453.847 259.976 476.782 263.819 498.104 260.735C534.358 255.5 560.931 239.414 576.321 213.317L580.022 207.006C580.022 207.006 527.477 182.981 525.579 182.048C521.735 189.134 508.67 200.158 500.034 202.688C457.77 215.231 423.889 174.82 441.763 133.333C452.392 108.549 483.188 98.4576 507.436 111.696C514.443 115.539 517.67 118.624 525.531 129.252C525.769 129.553 579.959 103.772 579.959 103.772L576.036 96.7652C570.105 86.2156 550.934 68.596 538.391 62.2852C517.987 51.9729 490.891 47.1963 469.411 50.1223V49.9642H469.38ZM682.202 49.9958C653.953 53.9974 628.502 68.2006 613.349 87.6074C570.927 142.032 589.481 224.025 650.378 251.277C662.462 256.67 676.714 261.905 698.652 261.984C720.591 262.064 734.842 256.67 746.927 251.277C776.031 238.26 797.811 210.707 804.66 178.299C812.126 143.044 801.275 104.784 776.869 80.3002C754.235 57.5086 718.076 44.9345 684.812 49.632L682.202 49.9958ZM1080.96 50.8341C1054.86 54.6775 1038.38 67.2832 1027.53 87.987C1021.67 99.1535 1021.67 124.397 1027.53 137.493C1035.15 154.511 1052.01 166.516 1079.49 174.298C1115.2 184.389 1119.14 186.461 1119.14 195.081C1119.14 205.013 1109.37 207.702 1093.28 207.085C1077.19 206.468 1067.02 194.464 1063.64 184.294C1062.4 184.531 1013.45 206.769 1012.29 207.845C1013.61 211.846 1022.84 228.169 1030.55 235.871C1045.8 251.198 1058.1 262.206 1099.76 262.206C1134.25 262.206 1153.5 249.505 1164.96 235.492C1184.91 211.166 1186.29 176.37 1168.13 154.733C1157.58 142.19 1146.03 136.639 1104.54 124.476C1089.07 119.936 1084.75 116.852 1084.75 110.462C1084.75 103.535 1090.29 100.15 1101.46 100.15C1109.62 100.15 1118.32 103.313 1121.24 107.236C1124.17 111.158 1124.87 113.784 1124.87 113.784L1147.12 103.234C1159.36 97.4611 1168.36 91.2294 1169.38 90.6917C1167.07 85.7727 1158.75 72.4394 1150.52 65.9072C1140.21 57.7459 1131.73 53.2065 1115.88 50.9764C1102.94 49.1259 1094.56 48.9045 1081.24 50.8183L1081.02 50.8499L1080.96 50.8341ZM880.331 59.0428C872.627 77.8961 839.917 156.884 834.444 169.822C830.822 178.363 825.508 191.142 822.74 198.228C819.892 205.314 813.265 221.478 808.029 234.021L798.555 256.892H861.682L867.376 243.115L873.07 229.339L942.05 230.257L947.285 243.653L952.521 257.05C952.521 257.05 1015.49 256.749 1015.49 256.196C1015.49 255.642 1012.03 247.038 1007.87 236.789C992.317 198.987 979.221 167.275 964.21 131.087C955.748 110.684 945.039 84.9028 940.421 73.7364L932.101 53.4912H882.592L880.283 59.1061V59.027L880.331 59.0428ZM1184.2 108.628H1237.63V256.971H1297.99V108.628H1351.42V53.428H1184.13V80.9803L1184.21 108.612L1184.2 108.628ZM1407.14 75.3655C1402.22 87.4493 1393.05 109.782 1386.74 124.934C1380.43 140.102 1372.72 158.734 1369.58 166.358C1366.49 173.981 1358.27 193.768 1351.32 210.312C1344.4 226.935 1337.39 244.191 1335.62 248.651L1332.45 256.892H1395.74L1401.05 243.495L1406.37 230.098H1476.04L1481.28 243.495L1486.51 256.892H1518.15C1535.55 256.892 1549.78 256.591 1549.78 256.196C1549.78 255.8 1546.4 247.497 1542.16 237.643C1538 227.868 1526.3 199.62 1516.06 174.899C1487.35 105.385 1475.87 77.5956 1470.57 65.4327L1465.41 53.3489H1415.99L1407.05 75.3655H1407.13H1407.14ZM1565.27 155.191V256.955H1705V200.063H1625.71V53.428H1565.35V155.191H1565.27ZM714.612 108.058C726.617 111.902 738.37 123.637 742.372 135.263C746.452 147.267 746.136 166.516 741.676 176.987C725.668 214.472 671.621 214.329 655.534 176.686C649.998 163.748 650.378 144.816 656.388 132.036C666.78 110.099 690.332 100.324 714.438 108.011L714.628 108.058H714.612ZM915.587 156.045C919.589 166.437 925.141 180.355 925.948 182.57C924.018 182.633 891.418 182.601 889.71 182.491C890.169 180.798 893.87 169.743 897.255 161.202C900.561 152.661 904.199 144.468 905.369 141.763C906.54 139.059 907.505 136.765 907.726 136.417C908.027 136.718 911.649 145.575 915.572 156.045H915.587ZM1450.94 160.348L1459.64 182.744H1441.7C1431.69 182.744 1424.45 182.617 1423.1 182.57C1424.12 179.739 1440.5 138.758 1441.09 137.936C1441.51 138.758 1446.09 148.027 1450.94 160.332V160.348Z" fill="currentColor"/>
<path fill-rule="evenodd" clip-rule="evenodd" d="M298.774 94.9939C290.992 76.5203 279.762 59.8971 265.447 45.5674C251.132 31.2376 234.571 20.087 216.018 12.242C196.847 4.08066 176.522 0 155.516 0C134.511 0 114.17 4.15974 94.999 12.242C76.5244 20.0237 59.9003 31.2534 45.5698 45.5674C31.2393 59.8813 20.088 76.4412 12.2426 94.9939C4.08088 114.164 0 134.488 0 155.508C0 176.528 4.15996 196.852 12.2426 216.022C20.0248 234.496 31.2551 251.119 45.5698 265.448C59.8845 279.778 76.4453 290.929 94.999 298.774C114.17 306.935 134.495 311.016 155.516 311.016C176.537 311.016 196.863 306.856 216.033 298.774C234.508 290.992 251.132 279.762 265.463 265.448C279.777 251.135 290.944 234.575 298.79 216.022C306.952 196.852 311.032 176.528 311.032 155.508C311.032 134.488 306.872 114.164 298.79 94.9939H298.774ZM278.306 207.386C277.531 209.237 276.693 211.087 275.839 212.922C269.607 216.386 263.438 219.849 257.285 223.313C239.269 233.467 220.715 241.866 200.39 246.105C159.581 254.424 114.17 236.488 93.0693 203.226C72.8231 171.435 73.6614 131.245 100.076 99.6914C116.621 79.8259 137.643 69.3554 163.362 67.5839C180.998 66.4293 198.081 68.9758 214.167 76.5203C229.874 84.0647 240.882 96.3067 248.19 112.013C249.044 113.705 249.883 115.476 251.037 117.786C251.401 115.002 251.274 114.432 251.037 113.088C243.651 77.058 220.162 56.5124 185.601 49.648C125.859 37.6433 62.5735 76.5203 50.6472 140.878C46.329 164.207 51.6437 186.445 63.048 207.165C81.6808 240.806 111.164 259.976 147.734 268.359C181.757 276.061 214.404 269.213 244.963 253.807C245.422 253.57 245.881 253.349 246.355 253.112C234.967 263.661 221.949 272.044 207.634 278.133C191.232 285.14 173.754 288.604 155.817 288.604C137.88 288.604 120.323 285.061 103.999 278.133C88.1343 271.443 73.8987 261.89 61.656 249.569C49.4134 237.248 39.7965 223.092 33.0899 207.228C26.0828 190.826 22.6188 173.349 22.6188 155.413C22.6188 137.477 26.1619 120 33.0899 103.598C39.7806 87.7342 49.3343 73.4993 61.656 61.2573C73.9778 49.0154 88.1343 39.3989 103.999 32.6927C120.402 25.686 137.88 22.2222 155.817 22.2222C173.754 22.2222 191.232 25.7651 207.634 32.6927C223.499 39.3831 237.735 48.9363 249.977 61.2573C262.22 73.5784 271.837 87.7342 278.544 103.598C285.551 120 289.015 137.477 289.015 155.413V159.035C288.018 159.415 287.164 159.952 286.168 160.348C267.377 169.284 249.139 179.28 230.348 188.058C216.492 194.606 201.94 199.225 186.392 199.683C164.991 200.3 147.275 193.135 136.741 173.744C121.651 146.034 137.042 116.552 160.293 105.385C174.845 98.3787 189.698 96.4491 204.787 103.851C208.409 105.544 211.415 108.09 214.562 110.32C214.721 110.478 214.879 110.32 214.8 110.162C212.111 103.93 207.84 99.0746 201.988 96.3067C156.956 75.0651 105.249 110.858 107.242 157.358C108.555 187.536 126.333 206.706 153.286 217.714C179.005 228.264 204.329 224.958 229.273 214.25C248.522 205.931 266.76 195.777 285.392 186.081C283.7 193.246 281.391 200.316 278.465 207.18V207.418H278.306V207.386Z" fill="currentColor"/>
</svg>




