<svg fill="currentColor" viewBox="0 0 210 35" xmlns="http://www.w3.org/2000/svg">
<path d="M183.509 17.5902C182.97 16.1143 182.152 14.7562 181.099 13.5902C180.064 12.4919 178.819 11.6113 177.439 11.0002C176.005 10.3327 174.441 9.9912 172.859 10.0002C171.285 10.0034 169.73 10.3444 168.299 11.0002C166.895 11.629 165.626 12.5219 164.559 13.6302C163.474 14.7603 162.609 16.0829 162.009 17.5302C161.38 19.1516 161.041 20.8712 161.009 22.6102C160.899 25.4702 162.439 34.9902 173.009 34.9902C174.844 35.0276 176.667 34.6923 178.369 34.0048C180.071 33.3173 181.615 32.2917 182.909 30.9902L183.479 30.3602L179.889 27.6802C179.429 28.3102 177.499 30.6002 172.889 30.6002C171.166 30.6542 169.489 30.0421 168.206 28.8911C166.922 27.7401 166.132 26.1388 165.999 24.4202H184.189C184.386 22.121 184.156 19.8053 183.509 17.5902ZM166.009 20.5902C166.125 19.833 166.336 19.0937 166.639 18.3902C167.004 17.58 167.516 16.8443 168.149 16.2202C168.769 15.6189 169.494 15.1375 170.289 14.8002C171.098 14.4659 171.964 14.2959 172.839 14.3002C173.704 14.294 174.562 14.4641 175.359 14.8002C176.128 15.1329 176.827 15.6079 177.419 16.2002C178.027 16.8169 178.512 17.543 178.849 18.3402C179.126 19.063 179.304 19.8198 179.379 20.5902H166.009Z"/>
<path d="M18.0003 28.6004C18.5503 29.2604 19.0603 29.8904 19.5503 30.4904L21.0303 32.3704C19.9202 33.221 18.6857 33.8956 17.3703 34.3704C15.9568 34.8814 14.4632 35.1354 12.9603 35.1204C11.3499 35.1302 9.75314 34.8245 8.26028 34.2204C6.81399 33.637 5.48319 32.8006 4.33028 31.7504C2.00224 29.6474 0.502087 26.7818 0.100277 23.6704C-0.140512 21.8642 0.0374084 20.0268 0.620277 18.3004C1.17975 16.6474 2.08676 15.1335 3.28028 13.8604C4.49291 12.5898 5.94384 11.5704 7.55028 10.8604C9.23562 10.0941 11.069 9.7083 12.9203 9.7304C14.4559 9.7147 15.9824 9.9686 17.4303 10.4804C18.7687 10.952 20.0267 11.6266 21.1603 12.4804L18.0003 16.2404C17.3231 15.6846 16.5458 15.2637 15.7103 15.0004C14.8002 14.7025 13.8479 14.5539 12.8903 14.5604C11.7066 14.5456 10.5324 14.7736 9.44028 15.2304C8.45075 15.6525 7.56644 16.2876 6.85028 17.0904C6.1506 17.8993 5.62926 18.8465 5.32028 19.8704C4.97758 20.9694 4.88533 22.1311 5.05028 23.2704C5.25791 25.1848 6.14911 26.9601 7.56028 28.2704C8.28302 28.9419 9.13113 29.4642 10.056 29.8074C10.9809 30.1505 11.9645 30.3079 12.9503 30.2704C13.8982 30.2787 14.8409 30.13 15.7403 29.8304C16.5604 29.5572 17.3256 29.1408 18.0003 28.6004Z"/>
<path d="M37.6094 22.3895C37.608 20.6957 37.9481 19.019 38.6094 17.4595C39.2447 15.9557 40.1766 14.5953 41.3494 13.4595C42.5387 12.3077 43.9281 11.3826 45.4494 10.7295C47.0517 10.0478 48.7783 9.7073 50.5194 9.7295C52.1298 9.7197 53.7266 10.0255 55.2194 10.6295C58.0911 11.7749 60.4453 13.93 61.8394 16.6895C62.5496 18.0685 63.0132 19.5609 63.2094 21.0995C63.4588 22.9306 63.3052 24.794 62.7594 26.5595C62.2447 28.204 61.3818 29.7184 60.2294 30.9995C59.0396 32.2785 57.5999 33.2996 55.9994 33.9995C54.2815 34.7634 52.4194 35.1487 50.5394 35.1295C48.829 35.1384 47.1323 34.8228 45.5394 34.1995C44.015 33.6064 42.622 32.7196 41.4394 31.5895C40.2596 30.4534 39.3179 29.0936 38.6694 27.5895C37.9653 25.9466 37.6046 24.177 37.6094 22.3895ZM42.5494 22.4495C42.5315 23.48 42.7326 24.5026 43.1394 25.4495C43.5316 26.3966 44.0981 27.2615 44.8094 27.9995C45.5273 28.7219 46.3801 29.2961 47.3194 29.6895C48.2918 30.0956 49.3356 30.303 50.3894 30.2995C51.517 30.3024 52.6333 30.0744 53.6694 29.6295C54.6695 29.2005 55.5688 28.5669 56.3094 27.7695C57.0561 26.9713 57.6312 26.0286 57.9994 24.9995C58.3696 23.9379 58.4861 22.8043 58.3394 21.6895C58.0975 19.7343 57.1604 17.9313 55.6994 16.6095C54.9707 15.9707 54.1389 15.4602 53.2394 15.0995C51.327 14.346 49.1962 14.3675 47.2994 15.1595C46.3647 15.5506 45.518 16.1252 44.8094 16.8495C44.1012 17.5766 43.5379 18.4318 43.1494 19.3695C42.7373 20.3433 42.533 21.3923 42.5494 22.4495Z"/>
<path d="M81.7583 11.9998L79.1783 15.7698C79.1183 15.7698 78.9583 15.6298 78.6683 15.4698C78.3191 15.2822 77.9544 15.125 77.5783 14.9998C76.9911 14.8169 76.3933 14.67 75.7883 14.5598C74.3883 14.2798 70.6383 14.2598 70.7883 16.8598C70.8244 17.1725 70.9338 17.4721 71.1076 17.7345C71.2813 17.9969 71.5146 18.2146 71.7883 18.3698C72.4637 18.8537 73.1836 19.2723 73.9383 19.6198C74.6983 20.0098 75.5783 20.3798 76.4383 20.7498C77.2983 21.1115 78.1137 21.5712 78.8683 22.1198C79.635 22.6783 80.3098 23.3531 80.8683 24.1198C81.4573 24.975 81.8187 25.9662 81.9183 26.9998C82.0721 28.0533 81.9797 29.1281 81.6483 30.1398C81.3343 31.1266 80.7852 32.0223 80.0483 32.7498C79.2502 33.5284 78.291 34.1224 77.2383 34.4898C76.0093 34.9404 74.707 35.1575 73.3983 35.1298C71.7896 35.1304 70.1916 34.8669 68.6683 34.3498C67.0451 33.8809 65.5368 33.0808 64.2383 31.9998C64.4983 31.7298 67.2383 28.3698 67.2383 28.3698C69.0936 29.561 71.2115 30.2819 73.4083 30.4698C74.3316 30.5198 75.2445 30.2554 75.9983 29.7198C76.3268 29.4877 76.5829 29.1672 76.7368 28.7956C76.8908 28.4239 76.9364 28.0163 76.8683 27.6198C76.8369 27.3143 76.7435 27.0185 76.5939 26.7502C76.4444 26.482 76.2417 26.2471 75.9983 26.0598C75.3891 25.6361 74.7352 25.2806 74.0483 24.9998C73.2883 24.6598 72.4783 24.3198 71.6283 23.9998C70.6886 23.6535 69.7872 23.2111 68.9383 22.6798C68.0639 22.1188 67.3226 21.3735 66.7664 20.496C66.2102 19.6185 65.8525 18.63 65.7183 17.5998C65.2783 14.5998 66.8783 9.7998 73.8383 9.7998C76.6462 9.6623 79.4236 10.4338 81.7583 11.9998Z"/>
<path d="M100.48 11.9995L97.9 15.7195L97.4 15.4195C97.0449 15.251 96.6771 15.1106 96.3 14.9995C95.7135 14.8143 95.1156 14.6673 94.51 14.5595C93.12 14.2795 89.36 14.2595 89.51 16.8595C89.5396 17.1667 89.6398 17.4628 89.8029 17.7248C89.966 17.9867 90.1874 18.2074 90.45 18.3695C91.1254 18.8534 91.8453 19.272 92.6 19.6195C93.36 20.0095 94.24 20.3795 95.1 20.7495C95.96 21.1112 96.7754 21.5709 97.53 22.1195C98.2962 22.6786 98.9709 23.3533 99.53 24.1195C100.141 24.9685 100.523 25.9602 100.64 26.9995C100.799 28.0528 100.707 29.1288 100.37 30.1395C100.056 31.1263 99.5069 32.022 98.77 32.7495C97.9814 33.5134 97.0363 34.0969 96 34.4595C94.7673 34.9093 93.4619 35.1263 92.15 35.0995C90.5445 35.1008 88.9497 34.8373 87.43 34.3195C85.8076 33.8639 84.2985 33.0736 83 31.9995C83.25 31.7295 86 28.3695 86 28.3695C87.8503 29.5636 89.9656 30.2848 92.16 30.4695C93.0836 30.5101 93.9935 30.235 94.74 29.6895C95.0685 29.4574 95.3246 29.1369 95.4785 28.7653C95.6325 28.3936 95.6781 27.986 95.61 27.5895C95.5755 27.2804 95.4767 26.9819 95.32 26.7133C95.1633 26.4446 94.9521 26.2117 94.7 26.0295C94.0958 25.6175 93.4487 25.2721 92.77 24.9995C92.01 24.6595 91.21 24.3195 90.35 23.9995C89.4112 23.6512 88.51 23.2089 87.66 22.6795C86.7856 22.1185 86.0443 21.3732 85.4881 20.4957C84.9319 19.6182 84.5742 18.6297 84.44 17.5995C84 14.5995 85.61 9.7995 92.57 9.7995C95.3746 9.6635 98.1484 10.4349 100.48 11.9995Z"/>
<path d="M128.812 3.3102C128.742 2.8753 128.779 2.4301 128.918 2.0123C129.057 1.5945 129.295 1.2165 129.612 0.910198C129.89 0.604498 130.228 0.358401 130.604 0.186501C130.981 0.0147005 131.388 -0.0793018 131.802 -0.0898018C132.509 -0.0691018 133.184 0.216401 133.692 0.710201C134.281 1.221 134.656 1.9352 134.742 2.7102C134.815 3.1405 134.78 3.5823 134.64 3.9959C134.5 4.4095 134.26 4.7821 133.942 5.0802C133.378 5.6597 132.609 5.9939 131.802 6.0102C131.081 6.0061 130.389 5.7312 129.862 5.2402C129.28 4.7527 128.905 4.0631 128.812 3.3102ZM134.272 34.5802H129.202L129.122 10.3102H134.192L134.272 34.5802Z"/>
<path d="M147.969 34.3596H150.999L161.999 10.3096L156.289 10.3196L149.439 27.0196L142.589 10.3196L136.879 10.3096L147.969 34.3596Z"/>
<path d="M199.839 10.3796C194.969 10.3796 192.589 15.2596 192.229 16.2196C192.229 15.2196 192.119 14.0296 192.039 13.0496C191.959 12.0696 191.869 11.5096 191.799 10.3096H187.309L187.389 34.5796H192.459V23.4096C192.459 19.3296 195.159 15.6496 199.839 15.6496V10.3796Z"/>
<path d="M125.001 10.3796C120.131 10.3796 117.741 15.2596 117.391 16.2196C117.391 15.2196 117.281 14.0296 117.191 13.0496C117.101 12.0696 117.031 11.5096 116.961 10.3096H112.461L112.551 34.5796H117.621V23.4096C117.621 19.3296 120.331 15.6496 125.011 15.6496L125.001 10.3796Z"/>
<path d="M36.8408 10.3796C31.9608 10.3796 29.5808 15.2596 29.2208 16.2196C29.2208 15.2196 29.1108 14.0296 29.0308 13.0496C28.9508 12.0696 28.8608 11.5096 28.7908 10.3096H24.3008L24.3808 34.5796H29.4608V23.4096C29.4608 19.3296 32.1708 15.6496 36.8508 15.6496L36.8408 10.3796Z"/>
<path d="M207.788 10.1497C208.288 10.4172 208.706 10.8145 208.998 11.2997C209.282 11.7956 209.427 12.3586 209.418 12.9297C209.423 13.5035 209.278 14.0687 208.998 14.5697C208.731 15.0677 208.329 15.4802 207.838 15.7597C207.332 16.0552 206.755 16.2073 206.168 16.1997C205.588 16.2092 205.015 16.0642 204.508 15.7797C204.024 15.509 203.623 15.1114 203.348 14.6297C203.076 14.1259 202.934 13.5623 202.934 12.9897C202.934 12.4171 203.076 11.8535 203.348 11.3497C203.625 10.8615 204.025 10.4545 204.508 10.1697C205.015 9.8751 205.592 9.7231 206.178 9.7297C206.742 9.7312 207.296 9.8757 207.788 10.1497ZM207.648 15.5197C208.092 15.2563 208.457 14.8803 208.708 14.4297C208.961 13.9703 209.092 13.4539 209.088 12.9297C209.094 12.407 208.96 11.8923 208.698 11.4397C208.442 11.0168 208.075 10.6712 207.638 10.4397C207.177 10.1823 206.656 10.0513 206.128 10.0597C205.595 10.0521 205.069 10.1904 204.608 10.4597C204.168 10.7194 203.806 11.0923 203.558 11.5397C203.3 11.9968 203.169 12.5147 203.178 13.0397C203.173 13.5609 203.304 14.0745 203.558 14.5297C203.812 14.9714 204.182 15.3347 204.628 15.5797C205.084 15.8415 205.602 15.9762 206.128 15.9697C206.667 15.9638 207.193 15.808 207.648 15.5197ZM206.498 13.0997L207.578 14.8697H207.188L206.188 13.1497H205.388V14.8697H205.068V10.9397H205.948C206.948 10.9397 207.428 11.3197 207.428 12.0797C207.434 12.3367 207.341 12.586 207.168 12.7759C206.994 12.9658 206.755 13.0818 206.498 13.0997ZM205.378 12.8697H206.148C206.788 12.8697 207.098 12.6097 207.098 12.0797C207.11 11.9575 207.091 11.8344 207.044 11.7211C206.997 11.6077 206.923 11.5077 206.828 11.4297C206.573 11.2851 206.281 11.219 205.988 11.2397H205.378V12.8697Z"/>
</svg>



