<svg width="156" height="40" viewBox="0 0 156 40" fill="none" xmlns="http://www.w3.org/2000/svg">
<g clip-path="url(#clip0_2033_97)">
<path d="M37.0709 0H2.9012C1.29891 0 0 1.29982 0 2.90323V37.0968C0 38.7002 1.29891 40 2.9012 40H37.0709C38.6732 40 39.9721 38.7002 39.9721 37.0968V2.90323C39.9721 1.29982 38.6732 0 37.0709 0Z" fill="black" mask="url(#elDoradoIconMask)"/>
<path d="M52.8984 12.0752H65.6362V15.1885H57.1221V18.3236H63.5469V21.3459H57.1221V24.9128H65.6362V27.9801H52.8984V12.0752Z" fill="black"/>
<path d="M66.7031 12.0752H70.745V27.9801H66.7031V12.0752Z" fill="black"/>
<path d="M76.7148 12.0752H83.2754C88.2032 12.0752 91.472 14.9606 91.472 20.0496C91.472 25.0947 88.1582 27.9801 83.1856 27.9801H76.7148V12.0752ZM80.9374 15.2564V24.8439H83.0717C85.6594 24.8439 87.1585 23.3217 87.1585 20.0726C87.1585 16.7555 85.6594 15.2564 83.0717 15.2564H80.9374Z" fill="black"/>
<path d="M92.3359 21.687C92.3359 17.5284 94.9696 15.0518 99.0114 15.0518C103.029 15.0518 105.664 17.5284 105.664 21.687C105.664 25.8446 103.052 28.3212 99.0114 28.3212C94.9696 28.3212 92.3359 25.8446 92.3359 21.687ZM101.69 21.687C101.69 19.1195 100.668 17.8692 99.0114 17.8692C97.3535 17.8692 96.3318 19.1195 96.3318 21.687C96.3318 24.2545 97.3535 25.5038 99.0114 25.5038C100.668 25.5038 101.69 24.2545 101.69 21.687Z" fill="black"/>
<path d="M106.66 15.3924H110.701V17.4372C111.541 15.9601 112.881 15.1426 114.675 15.1426H114.88V18.6645C114.516 18.5736 114.153 18.5506 113.766 18.5506C112.518 18.5506 111.337 19.0053 110.701 19.8459V27.9802H106.66V15.3924Z" fill="black"/>
<path d="M115.086 24.7306C115.086 22.1631 117.742 21.4355 120.443 20.664C122.442 20.0953 123.26 19.6416 123.26 18.868C123.26 18.1864 122.623 17.7097 121.465 17.7097C120.058 17.7097 119.195 18.5052 118.991 19.8235H115.312C115.721 17.0051 118.196 15.0742 121.625 15.0742C125.234 15.0742 127.232 16.7333 127.232 19.8005V27.9798H123.26V26.7075C122.328 27.685 120.965 28.2077 119.376 28.2077C116.766 28.2077 115.086 26.8215 115.086 24.7306ZM120.671 25.7301C121.647 25.7301 122.646 25.3663 123.26 24.7306V22.8677L123.282 21.8223C122.805 22.1631 122.146 22.368 121.352 22.6398C119.921 23.1176 118.991 23.5263 118.991 24.5028C118.991 25.2304 119.603 25.7301 120.671 25.7301Z" fill="black"/>
<path d="M128.23 21.6867C128.23 17.687 130.41 15.1195 133.724 15.1195C135.36 15.1195 136.7 15.8241 137.608 17.1413V12.0752H141.649V27.9801H137.608V26.2301C136.7 27.5483 135.36 28.2529 133.724 28.2529C130.388 28.2529 128.23 25.7534 128.23 21.6867ZM137.63 21.6867C137.63 19.1192 136.586 17.8689 134.905 17.8689C133.248 17.8689 132.226 19.1192 132.226 21.6637C132.226 24.2542 133.248 25.5035 134.905 25.5035C136.586 25.5035 137.63 24.2542 137.63 21.6867Z" fill="black"/>
<path d="M142.672 21.687C142.672 17.5284 145.306 15.0518 149.347 15.0518C153.366 15.0518 156.001 17.5284 156.001 21.687C156.001 25.8446 153.389 28.3212 149.347 28.3212C145.306 28.3212 142.672 25.8446 142.672 21.687ZM152.027 21.687C152.027 19.1195 151.005 17.8692 149.347 17.8692C147.689 17.8692 146.668 19.1195 146.668 21.687C146.668 24.2545 147.689 25.5038 149.347 25.5038C151.005 25.5038 152.027 24.2545 152.027 21.687Z" fill="black"/>
</g>
<defs>
<mask id="elDoradoIconMask" maskUnits="userSpaceOnUse" x="0" y="0" width="40" height="40">
<rect width="40" height="40" fill="white"/>
<path d="M12.3959 29.3545H10.5586V31.1932H12.3959V29.3545Z" fill="black"/>
<path d="M14.2333 22.0009V23.8395V25.6781H16.0701H17.9074V23.8395V22.0009V20.1628V18.3242V16.4856V14.6475H16.0701H14.2333V16.4856H12.3959H10.5586V18.3242H12.3959H14.2333V20.1628H12.3959H10.5586V22.0009H12.3959H14.2333Z" fill="black"/>
<path d="M27.0936 10.9704V9.13184H25.2562H23.4194H21.5815H19.7448H17.9074H16.0701H14.2333H12.3959H10.5586V10.9704H12.3959H14.2333V12.8091H16.0701H17.9074H19.7448V14.6477V16.4858V18.3244V20.163V22.0011V23.8397V25.6783H21.5815V23.8397V22.0011V20.163V18.3244V16.4858V14.6477V12.8091H23.4194H25.2562V14.6477V16.4858V18.3244V20.163V22.0011V23.8397V25.6783V27.517H27.0936V25.6783H28.9309V23.8397V22.0011V20.163V18.3244V16.4858V14.6477V12.8091V10.9704H27.0936Z" fill="black"/>
<path d="M21.584 27.5166H19.7473H17.9099H16.0726H14.2358H12.3984V29.3546H14.2358H16.0726V31.1933H17.9099H19.7473H21.584H23.4219V29.3546H25.2587V27.5166H23.4219H21.584Z" fill="black"/>
</mask>
<clipPath id="clip0_2033_97">
<rect width="156" height="40" fill="white"/>
</clipPath>
</defs>
</svg>
