<svg width="1024" height="128" viewBox="0 0 1024 128" fill="none" xmlns="http://www.w3.org/2000/svg">
<g clip-path="url(#clip0_1764_38)">
<path d="M110.8 31.6998L109 32.5998C104.2 26.6998 99.6999 21.5998 95.2999 17.3998C90.9999 13.1998 86.7999 10.0998 82.6999 8.19983C80.6999 7.29983 77.0999 6.4998 71.8999 5.7998C66.6999 5.1998 60.6999 4.7998 53.7999 4.7998C52.5999 4.7998 51.2999 4.79981 49.7999 4.89981C48.2999 4.99981 46.7999 4.99982 45.3999 5.09982C43.9999 5.19982 42.6999 5.1998 41.4999 5.2998C40.2999 5.3998 39.3999 5.39981 38.7999 5.39981C38.6999 6.09981 38.4999 6.79982 38.3999 7.49982C38.1999 8.19982 38.0999 8.99981 37.9999 9.89981C37.8999 10.7998 37.7999 11.9998 37.5999 13.4998C37.4999 14.9998 37.3999 16.6998 37.1999 18.7998C37.0999 22.8998 36.9999 27.2998 36.8999 32.0998C36.7999 36.8998 36.7999 41.4998 36.7999 45.7998V62.3998H39.9999C41.8999 62.3998 43.8999 62.2998 46.1999 62.1998C48.4999 62.0998 50.7999 61.8998 53.2999 61.7998C55.7999 61.5998 57.7999 61.3998 59.3999 60.9998C63.5999 60.0998 66.8999 58.7998 69.3999 57.2998C71.8999 55.7998 73.7999 53.9998 75.1999 51.8998C76.5999 49.7998 77.5999 47.4998 78.1999 44.9998C78.7999 42.4998 79.2999 39.7998 79.7999 36.8998H81.8999V93.0998H79.7999C78.8999 89.3998 77.4999 85.4998 75.7999 81.2998C73.9999 77.1998 71.8999 73.9998 69.4999 71.7998C67.2999 69.7998 64.8999 68.2998 62.3999 67.3998C59.8999 66.3998 56.8999 65.7998 53.5999 65.5998C51.7999 65.4998 50.2999 65.3998 48.9999 65.2998C47.6999 65.1998 46.4999 65.1998 45.2999 65.1998H36.8999V86.7998C36.8999 90.0998 36.8999 92.9998 36.9999 95.7998C37.0999 98.4998 37.0999 100.9 37.0999 102.9C37.1999 106.6 37.3999 110.1 37.6999 113.5C37.9999 116.8 38.6999 119.3 39.6999 120.9C40.7999 122.5 42.4999 123.8 44.9999 124.6C47.4999 125.5 51.1999 126 55.8999 126.3V128H-0.100098V126.3C2.7999 125.8 5.49991 125.1 7.99991 124C10.4999 123 12.5999 121.5 14.1999 119.6C14.7999 118.9 15.2999 117.9 15.5999 116.5C15.9999 115.2 16.2999 113.6 16.5999 111.9C16.8999 110.2 17.0999 108.3 17.1999 106.4C17.2999 104.5 17.3999 102.6 17.3999 100.7C17.3999 99.0998 17.3999 96.8998 17.4999 94.0998C17.5999 91.2998 17.5999 88.2998 17.6999 84.8998C17.7999 81.5998 17.7999 78.1998 17.7999 74.6998V30.5998C17.7999 28.4998 17.7999 26.3998 17.6999 24.0998C17.5999 21.8998 17.4999 19.7998 17.2999 17.7998C17.0999 15.7998 16.7999 14.0998 16.3999 12.4998C15.9999 10.8998 15.3999 9.79982 14.6999 9.09982C12.8999 7.19982 11.0999 5.99982 9.09991 5.49982C7.09991 4.99982 4.4999 4.49982 1.3999 3.99982V2.2998H98.6999L110.8 31.6998ZM302.1 128V126.3C302.5 126.3 303.3 126.2 304.6 126C305.9 125.8 307.3 125.4 308.8 124.8C310.3 124.2 311.5 123.4 312.7 122.4C313.9 121.4 314.4 120 314.4 118.4C314.4 117.4 314.1 115.6 313.4 113.3C312.8 110.9 311.9 108 310.7 104.6C309.5 101.2 308.2 97.3998 306.7 93.1998C305.2 88.9998 303.5 84.6998 301.8 80.0998H255.2C253.4 84.4998 251.8 88.6998 250.1 92.6998C248.5 96.6998 246.8 100.8 245.2 104.8C242.7 111.1 241.5 115.5 241.5 118.1C241.5 119.6 242 120.9 242.9 121.8C243.8 122.7 245 123.6 246.5 124.2C248 124.8 249.5 125.3 251.2 125.6C252.9 125.9 254.5 126.2 256 126.4V128.1H218.7V126.2C221.7 125.9 224.3 125 226.5 123.8C228.7 122.5 229.9 121.6 230.3 121.2C231.1 120.4 232.5 118.5 234.3 115.4C236.2 112.4 238.4 107.9 241.1 102C243.6 96.4998 246.3 90.2998 249.3 83.2998C252.3 76.2998 255.5 69.0998 258.7 61.7998C261.9 54.4998 265.1 46.9998 268.2 39.4998C271.4 31.9998 274.3 24.9998 277.1 18.4998L275.3 14.6998C277.4 13.7998 279.3 12.6998 281 11.3998C282.7 10.0998 284.2 8.79981 285.5 7.39981C286.8 5.99981 287.9 4.69981 288.7 3.39981C289.5 2.09981 290.2 1.0998 290.7 0.299805H292.1C295.7 9.89981 299.2 19.0998 302.4 27.7998C305.6 36.4998 308.8 44.7998 311.8 52.7998C314.8 60.7998 317.7 68.5998 320.5 76.0998C323.3 83.5998 326.1 90.9998 328.9 98.2998C330.2 101.9 331.4 104.9 332.5 107.3C333.6 109.7 334.9 112.4 336.3 115.4C336.5 115.9 337.1 116.7 337.9 117.8C338.7 119 339.8 120.2 341.1 121.4C342.4 122.6 344.1 123.7 346.1 124.6C348.1 125.5 350.4 126.1 353.1 126.2V128.3H302.1V128ZM279.1 22.2998C278.4 23.7998 277.4 26.1998 276 29.3998C274.7 32.6998 273 36.5998 271 41.2998C269 45.9998 266.8 51.1998 264.4 57.0998C262 62.9998 259.4 69.2998 256.6 76.1998H300.2C298.2 70.9998 296.2 65.6998 294.2 60.4998C292.2 55.2998 290.2 50.1998 288.2 45.3998C286.3 40.5998 284.5 36.1998 282.9 32.0998C281.5 28.1998 280.2 24.8998 279.1 22.2998ZM525.4 128H472.4V126.3C475.3 125.8 478 125.1 480.5 124C483 122.9 485.1 121.4 486.9 119.5C487.5 118.8 487.9 117.8 488.2 116.5C488.5 115.2 488.7 113.7 488.9 112C489.1 110.3 489.2 108.4 489.3 106.5C489.4 104.6 489.4 102.7 489.4 100.8C489.4 99.1998 489.4 96.9998 489.5 94.1998C489.6 91.3998 489.6 88.3998 489.7 84.9998C489.8 81.6998 489.8 78.2998 489.8 74.7998V24.3998C489.8 22.2998 489.7 20.3998 489.5 18.5998C489.3 16.7998 489.1 15.1998 488.7 13.6998C488.3 12.1998 487.8 11.0998 487.1 10.2998C485.5 8.2998 483.5 6.89982 481.1 5.99982C478.7 5.09982 476 4.49983 473 4.19983V2.49982H525.3V4.19983C522.8 4.49983 520.2 5.19982 517.4 6.09982C514.6 6.99982 512.4 8.89983 510.9 11.6998C509.8 13.6998 509.3 16.1998 509.2 19.1998C509.1 22.1998 509.1 25.0998 508.9 27.6998C508.9 30.5998 508.9 33.4998 508.8 36.2998C508.7 39.0998 508.7 41.9998 508.7 44.8998V103.3C508.7 106.7 508.8 109.9 508.9 113.1C509 116.3 509.5 118.4 510.5 119.7C511.9 121.7 514.1 123.2 517.2 124.2C520.3 125.2 523 125.9 525.4 126.1V128ZM790.4 128H754.5C753.4 127 752.7 126.2 752.2 125.6C751.7 125 751.2 124.5 750.6 123.8C750 123.1 749.3 122.1 748.4 120.7C747.5 119.4 746.2 117.4 744.3 114.7C742.1 111.4 740.1 108.5 738.4 105.9C736.7 103.3 735 100.7 733.2 98.0998C731.4 95.4998 729.6 92.9998 727.5 90.2998C725.5 87.6998 723 84.6998 720.2 81.4998C717.9 78.7998 715.3 76.2998 712.6 73.9998C709.9 71.6998 707 70.1998 703.9 69.5998C701.7 69.0998 700 68.8998 698.8 68.8998C697.7 68.8998 696.4 68.7998 694.8 68.6998V88.3998C694.8 93.9998 694.9 98.6998 695 102.5C695.1 106.2 695.2 109.4 695.4 112.1C695.5 114.8 696.2 117 697.3 118.7C698.2 120.2 700 121.8 702.7 123.3C705.4 124.9 709.1 125.8 713.9 126V127.7H657.9V126C660.8 125.5 663.6 124.8 666.3 123.9C669 123 671.1 121.6 672.6 119.7C673.2 119 673.7 118 674 116.6C674.4 115.2 674.6 113.6 674.8 111.9C675 110.2 675.1 108.3 675.2 106.3C675.3 104.3 675.4 102.4 675.4 100.5C675.4 98.8998 675.4 96.6998 675.5 93.8998C675.6 91.0998 675.6 88.0998 675.7 84.6998C675.8 81.3998 675.8 77.9998 675.8 74.4998V30.3998C675.8 28.2998 675.8 26.1998 675.7 23.9998C675.6 21.7998 675.5 19.7998 675.3 17.8998C675.1 15.9998 674.8 14.1998 674.4 12.6998C674 11.0998 673.4 9.9998 672.7 9.2998C670.9 7.3998 669 6.19982 666.8 5.59982C664.6 4.99982 662 4.39981 658.8 3.89981V2.19983H666C670 2.19983 674.5 2.19982 679.5 2.09982C684.5 1.99982 689.5 1.99982 694.6 1.99982H707C714.8 1.99982 721.8 2.19983 727.8 2.69983C733.9 3.19983 739.4 4.69981 744.4 7.39981C749.5 10.0998 753.7 13.6998 756.8 18.2998C760 22.8998 761.5 28.6998 761.5 35.6998C761.5 39.9998 760.7 43.8998 759.1 47.2998C757.5 50.6998 755.4 53.7998 752.8 56.3998C750.2 58.9998 747.1 61.2998 743.6 63.0998C740.1 64.9998 736.4 66.4998 732.6 67.7998V68.2998C734.6 69.2998 736.5 70.8998 738.4 72.7998C740.3 74.7998 742.1 76.9998 743.8 79.3998C746.8 83.7998 750.1 88.5998 753.7 93.6998C757.3 98.7998 760.4 103.3 763.2 107.3C767.5 113.3 771.7 117.8 775.8 120.6C779.9 123.4 784.7 125.2 790.2 126V128H790.4ZM741.5 34.8998C741.5 29.0998 740 23.8998 737.1 19.3998C734.2 14.8998 729.9 11.2998 724.3 8.59982C721.5 7.29982 718.6 6.3998 715.5 5.7998C712.4 5.1998 709.2 4.89981 705.8 4.89981C703.3 4.89981 701.4 4.99982 699.8 5.09982C698.3 5.19982 697.1 5.29981 696.3 5.39981C696.2 6.09981 696.1 6.69983 695.9 7.19983C695.7 7.69983 695.7 8.39983 695.6 9.19983C695.5 9.99983 695.5 11.0998 695.4 12.5998C695.3 14.0998 695.3 16.0998 695.1 18.7998C695 22.8998 694.9 27.4998 694.8 32.5998C694.7 37.6998 694.7 42.6998 694.7 47.3998V66.5998C699.5 66.5998 703.9 66.3998 708.1 65.9998C712.2 65.5998 716.2 64.7998 720.1 63.4998C723.8 62.2998 727 60.7998 729.7 58.7998C732.4 56.7998 734.6 54.5998 736.3 52.0998C738 49.5998 739.2 46.8998 740.1 43.9998C741 41.0998 741.5 37.9998 741.5 34.8998ZM1024 94.6998L1015.2 128H908.1V126.3C911 125.8 913.7 125.1 916.2 124C918.7 123 920.8 121.5 922.4 119.6C923 118.9 923.5 117.9 923.8 116.5C924.1 115.1 924.5 113.6 924.8 111.9C925.1 110.2 925.3 108.3 925.4 106.4C925.5 104.5 925.6 102.6 925.6 100.7C925.6 99.0998 925.6 96.8998 925.7 94.0998C925.8 91.2998 925.8 88.2998 925.9 84.8998C926 81.5998 926 78.1998 926 74.6998C926 71.0998 926 67.6998 926 64.5998V30.5998C926 28.4998 926 26.3998 925.9 24.0998C925.8 21.8998 925.7 19.7998 925.5 17.7998C925.3 15.7998 925 14.0998 924.6 12.4998C924.2 10.8998 923.6 9.79982 922.9 9.09982C921.1 7.19982 919.3 5.99982 917.3 5.49982C915.3 4.99982 912.7 4.49982 909.6 3.99982V2.2998H1006.2L1018.1 31.0998L1016.3 31.9998C1006.8 20.2998 998 12.3998 989.7 8.2998C987.7 7.3998 984 6.59981 978.7 5.89981C973.4 5.19981 966.8 4.89981 959.1 4.89981C956.6 4.89981 954.1 4.99983 951.5 5.19983C948.9 5.39983 947 5.5998 945.8 5.7998C945.6 7.6998 945.4 11.4998 945.2 17.2998C945 23.0998 944.9 29.8998 944.9 37.4998C944.9 41.8998 944.9 45.5998 944.9 48.6998C944.9 51.7998 944.9 54.1998 945 56.0998C945.1 57.9998 945.1 59.4998 945.1 60.4998C945.1 61.3998 945.1 62.0998 945.1 62.3998C945.7 62.3998 946.9 62.3998 948.6 62.3998C950.4 62.3998 952.4 62.2998 954.6 62.1998C956.9 62.0998 959.2 61.8998 961.4 61.7998C963.7 61.5998 965.6 61.3998 967.1 60.9998C970.6 60.1998 973.5 59.0998 975.9 57.6998C978.2 56.2998 980.1 54.5998 981.6 52.5998C983.1 50.5998 984.2 48.2998 985.1 45.6998C986 43.0998 986.8 40.0998 987.5 36.8998H989.6V91.7998H987.5C986.6 88.0998 985.1 84.1998 983.2 80.2998C981.3 76.2998 979.3 73.3998 977.2 71.3998C975.3 69.7998 973.1 68.3998 970.5 67.3998C967.9 66.3998 964.8 65.6998 961.3 65.4998C959.5 65.3998 958.1 65.2998 956.9 65.1998C955.7 65.0998 954.6 65.0998 953.4 65.0998C952.3 65.0998 951.2 65.0998 949.9 65.0998C948.7 65.0998 947.2 65.0998 945.3 65.0998C945.1 66.6998 944.9 69.0998 944.9 72.1998C944.9 75.2998 944.9 78.5998 944.9 81.9998C944.9 83.4998 944.9 85.2998 944.9 87.1998C944.9 89.0998 944.9 91.1998 944.9 93.0998C944.9 94.9998 944.9 96.6998 945 98.3998C945.1 100.1 945.1 101.5 945.1 102.7C945.2 106.4 945.4 109.9 945.7 113.3C946 116.6 946.7 119.1 947.7 120.7C948.8 122.3 951.3 123.5 955.2 124.2C959.2 124.9 963.5 125.2 968.2 125.2C970.2 125.2 972.7 125.1 975.8 125C978.9 124.9 982.1 124.6 985.5 124.1C989.2 123.6 992.7 122.7 995.8 121.4C998.9 120.1 1002 118.2 1004.9 115.7C1007.8 113.3 1010.6 110.3 1013.4 106.7C1016.1 103.2 1019 98.8998 1021.9 93.8998L1024 94.6998Z" fill="black"/>
</g>
<defs>
<clipPath id="clip0_1764_38">
<rect width="1024" height="128" fill="white"/>
</clipPath>
</defs>
</svg>
