<svg width="448" height="94" viewBox="0 0 448 94" fill="none" xmlns="http://www.w3.org/2000/svg">
<g clip-path="url(#clip0_1764_42)">
<path fill-rule="evenodd" clip-rule="evenodd" d="M0 1.81055H54.004V19.6906H0V1.81055ZM0 91.3686V37.6426H54.004V55.5225H17.973V91.3686H0Z" fill="black"/>
<path d="M99.029 1.80176H80.988V91.3728H99.029V1.80176Z" fill="black"/>
<path d="M165.052 37.548V55.428H176.22V59.175C176.22 68.285 168.746 75.692 159.554 75.692C150.361 75.692 142.887 68.285 142.887 59.175V34.483C142.887 25.373 150.361 17.965 159.554 17.965C162.904 17.965 166.083 18.902 168.918 20.775C169.691 21.286 170.464 21.882 171.152 22.563L171.753 23.074L184.296 10.132L183.695 9.621C182.492 8.429 181.117 7.322 179.743 6.386C179.485 6.215 179.313 6.045 179.055 5.96H178.97C178.798 5.79 178.54 5.705 178.368 5.534C172.698 1.873 166.255 0 159.554 0C140.396 0 124.76 15.411 124.76 34.483V59.26C124.76 78.247 140.31 93.743 159.554 93.743C178.712 93.743 194.347 78.332 194.347 59.26V37.548H165.052Z" fill="black"/>
<path d="M262.676 1.80176V59.1888V59.9548C262.676 68.5548 255.631 75.5358 246.954 75.5358C238.277 75.5358 231.232 68.5548 231.232 59.9548V59.1888V1.80176H213.191V59.1888V59.9548C213.191 78.4308 228.311 93.4168 246.954 93.4168C265.339 93.4168 280.287 78.8568 280.717 60.7218V59.9548V59.1888V1.80176H262.676Z" fill="black"/>
<path d="M351.792 91.2878H371.637L355.314 57.0598C364.421 51.9518 370.521 42.3308 370.521 31.3468C370.521 15.0848 357.119 1.80176 340.71 1.80176H339.937H324.559H316.913H306.432V91.3728H324.473V60.8068H337.102L351.792 91.2878ZM324.559 19.6828H339.937H340.71C347.153 19.6828 352.479 24.8758 352.479 31.3468C352.479 37.7328 347.239 43.0117 340.71 43.0117H339.937H324.559V19.6828Z" fill="black"/>
<path d="M448.426 19.7678V1.80176H394.425V91.3728H448.426V73.4078H412.483V55.5278H448.426V37.6478H412.483V19.7678H448.426Z" fill="black"/>
</g>
<defs>
<clipPath id="clip0_1764_42">
<rect width="448" height="94" fill="white"/>
</clipPath>
</defs>
</svg>
