<svg width="69" height="27" viewBox="0 0 69 27" fill="none" xmlns="http://www.w3.org/2000/svg">
<g clip-path="url(#clip0_1766_51)">
<path d="M61.27 3.836C57.007 3.836 53.538 7.32 53.538 11.603C53.538 15.886 57.007 19.37 61.27 19.37C65.532 19.37 69 15.886 69 11.603C69 7.32 65.532 3.836 61.27 3.836ZM61.27 15.689C59.028 15.689 57.202 13.854 57.202 11.603C57.202 9.351 59.028 7.517 61.27 7.517C63.51 7.517 65.337 9.351 65.337 11.603C65.337 13.855 63.512 15.689 61.27 15.689ZM38.502 10.03L37.15 9.352C36.563 9.06 36.195 8.834 36.047 8.667C35.9059 8.51902 35.8256 8.32342 35.822 8.119C35.822 7.857 35.94 7.636 36.172 7.464C36.402 7.284 36.729 7.202 37.144 7.202C37.903 7.202 38.744 7.66 39.67 8.583L41.952 6.29C41.3913 5.52644 40.658 4.90624 39.812 4.48C38.9771 4.05992 38.0546 3.84336 37.12 3.848C35.727 3.848 34.577 4.259 33.681 5.087C32.786 5.915 32.336 6.91 32.336 8.077C32.336 9.887 33.521 11.395 35.899 12.592L37.144 13.217C38.217 13.76 38.751 14.313 38.751 14.885C38.751 15.195 38.602 15.463 38.306 15.701C38.01 15.94 37.618 16.053 37.132 16.053C36.682 16.053 36.166 15.898 35.585 15.583C35.0061 15.2731 34.491 14.8564 34.067 14.355L31.797 16.839C33.077 18.519 34.784 19.365 36.93 19.365C38.543 19.365 39.83 18.924 40.784 18.048C41.744 17.173 42.224 16.077 42.224 14.766C42.224 13.783 41.958 12.92 41.43 12.187C40.897 11.454 39.919 10.74 38.502 10.031V10.03ZM15.546 17.678V4.145H11.876V5.051C10.6394 4.25617 9.20002 3.83435 7.73 3.836C3.468 3.836 0 7.32 0 11.603C0 15.886 3.468 19.37 7.731 19.37C9.18338 19.3722 10.6064 18.9612 11.834 18.185C11.834 18.304 11.828 18.411 11.828 18.483C11.828 20.734 10.002 22.569 7.761 22.569C6.99902 22.5672 6.25303 22.3502 5.609 21.943L3.794 25.136C4.99081 25.866 6.3651 26.2535 7.767 26.256C12.03 26.256 15.546 22.771 15.546 18.488C15.546 18.322 15.557 17.833 15.546 17.678ZM7.731 15.688C5.491 15.688 3.664 13.854 3.664 11.603C3.664 9.351 5.49 7.517 7.731 7.517C9.972 7.517 11.798 9.351 11.798 11.603C11.798 13.854 9.972 15.689 7.731 15.689V15.688ZM30.165 4.14H26.477V11.524C26.483 12.573 26.483 14.384 25.713 15.158C25.345 15.527 24.942 15.861 24.094 15.861C23.24 15.861 22.837 15.527 22.47 15.158C21.699 14.383 21.705 12.567 21.71 11.524V4.14H18.023V11.502C18.011 13.02 17.993 15.838 19.843 17.708C20.928 18.804 22.221 19.364 24.088 19.364C25.956 19.364 27.248 18.81 28.333 17.708C30.183 15.838 30.165 13.014 30.153 11.502L30.165 4.14ZM51.064 15.028C50.768 15.254 50.05 15.755 49.238 15.642C48.574 15.552 48.035 15.064 47.952 13.432V7.309H52.286V4.128H47.952V0H44.276V0.81H44.27V12.95C44.27 14.88 44.756 19.364 49.232 19.364C51.497 19.329 52.872 18.096 53.448 17.614L53.525 17.554L51.319 14.826C51.313 14.831 51.159 14.956 51.064 15.028Z" fill="black"/>
</g>
<defs>
<clipPath id="clip0_1766_51">
<rect width="69" height="27" fill="white"/>
</clipPath>
</defs>
</svg>
