<svg xmlns="http://www.w3.org/2000/svg" viewBox="0 0 120 26" width="100px"><path d="M72.7265 18.5273C72.7265 18.2167 72.4747 17.965 72.1641 17.965H72.033C71.4387 17.965 70.8333 17.9981 70.2169 18.0642C69.6226 18.1083 69.0832 18.2076 68.5989 18.3619C68.1367 18.5163 67.7514 18.7478 67.4432 19.0566C67.135 19.3432 66.9809 19.7292 66.9809 20.2143C66.9809 20.523 67.047 20.7877 67.1791 21.0082C67.3332 21.2287 67.5203 21.4051 67.7404 21.5374C67.9605 21.6698 68.2137 21.769 68.4999 21.8352C68.7861 21.8793 69.0612 21.9013 69.3254 21.9013C70.4261 21.9013 71.2626 21.6036 71.8349 21.0082C72.4293 20.3907 72.7265 19.5638 72.7265 18.5273ZM63.1662 11.5908C62.9562 11.3652 62.9653 11.0113 63.1999 10.8114C64.0708 10.0692 65.056 9.49877 66.1554 9.09999C67.4542 8.6369 68.775 8.40535 70.1179 8.40535C71.5047 8.40535 72.6714 8.58177 73.618 8.9346C74.5866 9.26539 75.3681 9.79464 75.9624 10.5224C76.5568 11.228 76.9861 12.1322 77.2502 13.2348C77.5364 14.3153 77.7463 15.3408 77.7463 16.8403V24.601C77.7463 24.9121 77.4941 25.1643 77.1829 25.1643H73.2393C72.9281 25.1643 72.6759 24.9121 72.6759 24.601V23.4209C72.6759 23.4037 72.662 23.3898 72.6448 23.3898C72.634 23.3898 72.624 23.3955 72.6183 23.4047C72.1999 24.0811 71.5645 24.6054 70.7122 24.9776C69.8757 25.3525 68.9622 25.5399 67.9716 25.5399C67.3111 25.5399 66.6287 25.4517 65.9243 25.2753C65.2199 25.0989 64.5705 24.8122 63.9761 24.4153C63.4038 24.0183 62.9305 23.4891 62.5562 22.8275C62.182 22.1659 61.9949 21.35 61.9949 20.3797C61.9949 19.1889 62.3141 18.2296 62.9525 17.5019C63.6129 16.7742 64.4494 16.2118 65.462 15.8149C66.4966 15.418 67.6414 15.1533 68.8961 15.021C69.9535 14.9095 70.9875 14.845 71.998 14.8275C72.3091 14.8221 72.5703 14.5676 72.5098 14.2624C72.4039 13.728 72.1349 13.3193 71.7028 13.0363C71.1305 12.6394 70.4261 12.4409 69.5895 12.4409C68.8191 12.4409 68.0706 12.6063 67.3442 12.9371C66.8285 13.1792 66.3659 13.4568 65.9564 13.7699C65.7107 13.9577 65.3582 13.9455 65.1475 13.7192L63.1662 11.5908Z"></path><path d="M115.047 18.5273C115.047 18.2167 114.795 17.965 114.485 17.965H114.354C113.759 17.965 113.154 17.9981 112.537 18.0642C111.943 18.1083 111.404 18.2076 110.919 18.3619C110.457 18.5163 110.072 18.7478 109.764 19.0566C109.456 19.3432 109.301 19.7292 109.301 20.2143C109.301 20.523 109.368 20.7877 109.5 21.0082C109.654 21.2287 109.841 21.4051 110.061 21.5374C110.281 21.6698 110.534 21.769 110.82 21.8352C111.107 21.8793 111.382 21.9013 111.646 21.9013C112.747 21.9013 113.583 21.6036 114.155 21.0082C114.75 20.3907 115.047 19.5638 115.047 18.5273ZM105.487 11.5908C105.277 11.3652 105.286 11.0113 105.52 10.8114C106.391 10.0692 107.377 9.49877 108.476 9.09999C109.775 8.6369 111.096 8.40535 112.438 8.40535C113.825 8.40535 114.992 8.58177 115.939 8.9346C116.907 9.26539 117.689 9.79464 118.283 10.5224C118.877 11.228 119.307 12.1322 119.571 13.2348C119.857 14.3153 120 15.3408 120 16.8403V24.601C120 24.9121 119.748 25.1643 119.437 25.1643H115.681C115.37 25.1643 115.117 24.9121 115.117 24.601V23.4984C115.117 23.4384 115.069 23.3898 115.009 23.3898C114.971 23.3898 114.936 23.4096 114.916 23.4415C114.497 24.1002 113.87 24.6122 113.033 24.9776C112.196 25.3525 111.283 25.5399 110.292 25.5399C109.632 25.5399 108.949 25.4517 108.245 25.2753C107.54 25.0989 106.891 24.8122 106.297 24.4153C105.724 24.0183 105.251 23.4891 104.877 22.8275C104.503 22.1659 104.315 21.35 104.315 20.3797C104.315 19.1889 104.635 18.2296 105.273 17.5019C105.933 16.7742 106.77 16.2118 107.783 15.8149C108.817 15.418 109.962 15.1533 111.217 15.021C112.274 14.9095 113.308 14.845 114.319 14.8275C114.63 14.8221 114.891 14.5676 114.83 14.2624C114.724 13.728 114.455 13.3193 114.023 13.0363C113.451 12.6394 112.747 12.4409 111.91 12.4409C111.14 12.4409 110.391 12.6063 109.665 12.9371C109.149 13.1792 108.686 13.4568 108.277 13.7699C108.031 13.9577 107.679 13.9455 107.468 13.7192L105.487 11.5908Z"></path><path d="M85.6337 17.1357V24.601C85.6337 24.9121 85.3814 25.1643 85.0703 25.1643H80.751C80.4399 25.1643 80.1876 24.9121 80.1876 24.601V16.796C80.1876 10.2068 85.4018 8.6385 89.976 8.6385C90.0764 8.6385 90.3152 8.65147 90.545 8.66556C90.8446 8.68394 91.0751 8.93565 91.0724 9.23584C91.063 10.3024 91.0706 11.9176 91.0758 12.7664C91.0777 13.0793 90.8247 13.3316 90.5119 13.3401C88.5772 13.3923 85.6666 13.8254 85.6337 17.1357Z"></path><path d="M99.3426 13.3333C99.0315 13.3333 98.7793 13.5856 98.7793 13.8967V18.6381C98.7793 19.41 98.8485 19.9943 99.1346 20.3913C99.4428 20.7662 99.9822 21.2207 100.753 21.2207H102.347V24.6813C102.347 24.9498 102.159 25.1805 101.894 25.2279C101.244 25.3445 100.039 25.5399 99.2667 25.5399C98.166 25.5399 97.2415 25.4076 96.493 25.143C95.7446 24.8563 95.1392 24.4594 94.6769 23.9522C94.2366 23.4229 93.9174 22.8054 93.7193 22.0998C93.5212 21.3721 93.3332 20.5672 93.3332 19.6851V4.88263C93.3332 4.57149 93.5855 4.31925 93.8966 4.31925H98.2159C98.527 4.31925 98.7793 4.57149 98.7793 4.88263V8.07512C98.7793 8.38627 99.0315 8.6385 99.3426 8.6385H101.972C102.283 8.6385 102.535 8.89074 102.535 9.20188V12.77C102.535 13.0811 102.283 13.3333 101.972 13.3333H99.3426Z"></path><path d="M49.3917 24.6316C49.3917 24.9428 49.1395 25.195 48.8283 25.195H44.5067C44.1956 25.195 43.9434 24.9428 43.9434 24.6316V0.563379C43.9434 0.252233 44.1956 0 44.5067 0H48.8283C49.1395 0 49.3917 0.252234 49.3917 0.563381V13.8092C49.3917 14.3411 50.0609 14.5767 50.3941 14.1622L54.6663 8.84886C54.7732 8.71586 54.9347 8.6385 55.1053 8.6385H60.1219C60.5978 8.6385 60.8593 9.19202 60.5571 9.55964L54.9481 16.3829C54.7803 16.587 54.7769 16.8803 54.94 17.0882L60.5502 24.244C60.84 24.6138 60.5766 25.155 60.1068 25.155H55.0173C54.8413 25.155 54.6753 25.0727 54.5688 24.9326L50.4036 19.4531C50.0771 19.0236 49.3917 19.2545 49.3917 19.7941V24.6316Z"></path><path d="M30.4064 8.63852C31.5832 8.63865 32.1722 10.0634 31.3401 10.8959L26.2716 15.9675C25.7563 16.483 25.7549 17.3211 26.2716 17.8376L31.339 22.9102C32.1706 23.7427 31.5811 25.1672 30.4042 25.1672L21.977 25.1683C21.6267 25.1673 21.2907 25.0288 21.0433 24.7813L13.5598 17.2913C13.3125 17.0433 12.977 16.9039 12.6261 16.9043H1.32087C0.592216 16.9043 6.60789e-05 16.3135 0 15.5823V9.96232C0.000479788 9.23294 0.590912 8.64042 1.32194 8.63995H11.8525C12.5812 8.64088 13.1729 9.23148 13.1734 9.96267V13.7125C13.1734 14.8906 14.5969 15.4804 15.429 14.6479L21.0441 9.02833C21.2914 8.78047 21.6277 8.64151 21.9785 8.64102L30.4056 8.63995V8.63852H30.4064Z"></path></svg>
