<svg viewBox="0 0 318 101" fill="none" xmlns="http://www.w3.org/2000/svg">
<path d="M61.79 19.1602V61.9702V100.3L100.01 61.9702V19.1602H61.79Z" fill="currentColor"/>
<path d="M80.9 0H38.22L0 38.33H38.22H80.9V0Z" fill="currentColor"/>
<path d="M100.01 0H61.79V38.33H100.01V0Z" fill="currentColor"/>
<path d="M169.3 53.75L161.09 61.98H135.39C133.43 61.98 131.86 60.39 131.86 58.44V8.83L140.66 0V53.75H169.3Z" fill="currentColor"/>
<path d="M215.05 41.33C215.05 42.26 214.97 43.2 214.87 44.13H181.29C182.36 50.86 187.18 54.99 193.95 54.99C198.89 54.99 202.89 52.69 205.09 48.92H214.05C210.76 57.68 203.21 63 193.96 63C181.87 63 172.7 53.63 172.7 41.23C172.7 28.83 181.84 19.46 193.96 19.46C206.08 19.46 215.06 29.25 215.06 41.33H215.05ZM193.95 27.16C187.55 27.16 182.88 31.03 181.5 37.19H206.52C204.99 30.88 200.26 27.16 193.95 27.16Z" fill="currentColor"/>
<path d="M265.83 20.45V61.97H258.17L258.14 56.93C254.39 60.73 249.16 63.02 243.13 63.02C230.8 63.02 221.58 53.67 221.58 41.24C221.58 28.81 230.8 19.5 243.13 19.5C249.23 19.5 254.51 21.81 258.26 25.68V20.48H265.83V20.45ZM257.31 41.2C257.31 33.37 251.6 27.58 243.82 27.58C236.04 27.58 230.27 33.43 230.27 41.2C230.27 48.97 236.02 54.82 243.82 54.82C251.62 54.82 257.31 49.03 257.31 41.2Z" fill="currentColor"/>
<path d="M308.79 8.54V24.24C305.18 21.19 300.46 19.41 295.16 19.41C282.65 19.41 273.64 28.69 273.64 41.18C273.64 53.67 282.64 62.96 295.16 62.96C300.77 62.96 305.7 60.94 309.38 57.56V61.93H317.29V0L308.78 8.54H308.79ZM295.82 54.8C288.02 54.8 282.33 49.01 282.33 41.18C282.33 33.35 288.04 27.56 295.82 27.56C303.6 27.56 309.37 33.41 309.37 41.18C309.37 48.95 303.62 54.8 295.82 54.8Z" fill="currentColor"/>
<path d="M61.79 38.33H100.01V0L61.79 38.33Z" fill="currentColor"/>
</svg>




