<svg width="548" height="96" viewBox="0 0 548 96" fill="none" xmlns="http://www.w3.org/2000/svg">
<path d="M77.6653 10.28C77.0467 10.7667 76.4413 11.268 75.8493 11.784C65.7347 20.584 59.332 33.54 59.332 47.9987C59.332 62.4587 65.7347 75.4147 75.8493 84.2147C76.4413 84.7307 77.0467 85.232 77.6653 85.7187C78.284 85.232 78.8893 84.7307 79.4813 84.2147C89.596 75.4147 95.9987 62.4587 95.9987 47.9987C95.9987 33.54 89.596 20.584 79.4813 11.784C78.8893 11.268 78.284 10.7667 77.6653 10.28ZM107.331 -2.86102e-06C97.5027 -2.86102e-06 88.3667 2.95466 80.7587 8.02133C81.148 8.34133 81.5413 8.65466 81.9187 8.98266C93.2267 18.8213 99.712 33.0413 99.712 47.9987C99.712 62.9573 93.2267 77.1773 81.92 87.016C81.544 87.3427 81.148 87.6573 80.7587 87.9773C88.3667 93.044 97.5027 95.9987 107.331 95.9987C133.84 95.9987 155.331 74.5093 155.331 48C155.331 21.4893 133.84 -2.86102e-06 107.331 -2.86102e-06ZM73.412 87.016C73.7867 87.3427 74.1827 87.6573 74.572 87.9773C66.964 93.044 57.8267 96 48 96C21.4893 96 0 74.5093 0 48C0 21.4907 21.4893 -2.86102e-06 48 -2.86102e-06C57.8267 -2.86102e-06 66.9627 2.95466 74.572 8.02133C74.1827 8.34133 73.7893 8.65466 73.412 8.98133C62.104 18.8213 55.6187 33.0413 55.6187 47.9987C55.6187 62.9573 62.104 77.1787 73.412 87.016ZM251.196 48.2067C251.196 42.5973 254.868 37.9893 260.879 37.9893C266.621 37.9893 270.495 42.3973 270.495 48.2067C270.495 54.0173 266.621 58.424 260.879 58.424C254.868 58.424 251.196 53.8173 251.196 48.2067ZM277.04 48.2067V32.2467H270.095V36.12C267.891 33.248 264.552 31.4453 260.011 31.4453C251.061 31.4453 244.049 38.4573 244.049 48.2067C244.049 57.9573 251.061 64.9693 260.011 64.9693C264.552 64.9693 267.891 63.1667 270.095 60.2947V64.168H277.04V48.2067ZM511.58 48.2067C511.58 42.5973 515.253 37.9893 521.264 37.9893C527.007 37.9893 530.88 42.3973 530.88 48.2067C530.88 54.0173 527.007 58.424 521.264 58.424C515.253 58.424 511.58 53.8173 511.58 48.2067ZM545.195 62.652V63.1547H545.656C545.763 63.1547 545.847 63.1333 545.909 63.092C545.972 63.0507 546.004 62.9867 546.004 62.9013C546.004 62.8173 545.972 62.756 545.909 62.7147C545.847 62.6733 545.763 62.652 545.656 62.652H545.195ZM545.661 62.3C545.903 62.3 546.089 62.3533 546.22 62.4613C546.351 62.5693 546.416 62.7147 546.416 62.9013C546.416 63.056 546.364 63.184 546.26 63.2853C546.155 63.3867 546.007 63.448 545.815 63.472L546.431 64.1813H545.949L545.379 63.476H545.195V64.1813H544.792V62.3H545.661ZM545.541 64.828C545.76 64.828 545.964 64.7853 546.153 64.704C546.341 64.62 546.507 64.508 546.649 64.3653C546.792 64.2227 546.904 64.056 546.984 63.864C547.065 63.672 547.107 63.4667 547.107 63.248C547.107 63.0307 547.065 62.8253 546.984 62.6333C546.904 62.4413 546.792 62.2733 546.649 62.1307C546.507 61.988 546.341 61.8773 546.153 61.796C545.964 61.7147 545.76 61.6747 545.541 61.6747C545.32 61.6747 545.112 61.7147 544.919 61.796C544.725 61.8773 544.557 61.988 544.415 62.1307C544.273 62.2733 544.161 62.4413 544.08 62.6333C543.999 62.8253 543.957 63.0307 543.957 63.248C543.957 63.4667 543.999 63.672 544.08 63.864C544.161 64.056 544.273 64.2227 544.415 64.3653C544.557 64.508 544.725 64.62 544.919 64.704C545.112 64.7853 545.32 64.828 545.541 64.828ZM545.541 61.2227C545.827 61.2227 546.093 61.276 546.344 61.3813C546.593 61.4867 546.812 61.632 547 61.816C547.187 62 547.333 62.2147 547.441 62.4613C547.548 62.708 547.603 62.9707 547.603 63.248C547.603 63.5267 547.548 63.788 547.441 64.0333C547.333 64.2773 547.187 64.492 547 64.676C546.812 64.86 546.593 65.0053 546.344 65.1133C546.093 65.22 545.827 65.2747 545.541 65.2747C545.251 65.2747 544.979 65.22 544.725 65.1133C544.472 65.0053 544.252 64.86 544.068 64.676C543.881 64.492 543.735 64.2773 543.628 64.0333C543.52 63.788 543.467 63.5267 543.467 63.248C543.467 62.9707 543.52 62.708 543.628 62.4613C543.735 62.2147 543.881 62 544.068 61.816C544.252 61.632 544.472 61.4867 544.725 61.3813C544.979 61.276 545.251 61.2227 545.541 61.2227ZM537.425 48.2067V19.424H530.48V36.12C528.276 33.248 524.936 31.4453 520.396 31.4453C511.447 31.4453 504.435 38.4573 504.435 48.2067C504.435 57.9573 511.447 64.9693 520.396 64.9693C524.936 64.9693 528.276 63.1667 530.48 60.2947V64.168H537.425V48.2067ZM363.189 37.656C367.664 37.656 370.536 40.46 371.271 45.4027H354.708C355.443 40.7947 358.248 37.656 363.189 37.656ZM363.323 31.4453C353.973 31.4453 347.429 38.256 347.429 48.2067C347.429 58.3587 354.241 64.9693 363.791 64.9693C368.599 64.9693 373.007 63.7667 376.88 60.4947L373.473 55.3533C370.803 57.4893 367.397 58.692 364.191 58.692C359.716 58.692 355.643 56.6213 354.641 50.8787H378.349C378.416 50.0107 378.483 49.1427 378.483 48.2067C378.416 38.256 372.272 31.4453 363.323 31.4453ZM447.135 48.2067C447.135 42.5973 450.808 37.9893 456.819 37.9893C462.561 37.9893 466.435 42.3973 466.435 48.2067C466.435 54.0173 462.561 58.424 456.819 58.424C450.808 58.424 447.135 53.8173 447.135 48.2067ZM472.98 48.2067V32.2467H466.035V36.12C463.831 33.248 460.492 31.4453 455.951 31.4453C447.001 31.4453 439.989 38.4573 439.989 48.2067C439.989 57.9573 447.001 64.9693 455.951 64.9693C460.492 64.9693 463.831 63.1667 466.035 60.2947V64.168H472.98V48.2067ZM407.933 48.2067C407.933 57.8907 414.679 64.9693 424.964 64.9693C429.772 64.9693 432.977 63.9013 436.449 61.1627L433.111 55.5533C430.507 57.424 427.768 58.424 424.763 58.424C419.22 58.3587 415.147 54.3507 415.147 48.2067C415.147 42.064 419.22 38.056 424.763 37.9893C427.768 37.9893 430.507 38.9907 433.111 40.8613L436.449 35.252C432.977 32.5133 429.772 31.4453 424.964 31.4453C414.679 31.4453 407.933 38.524 407.933 48.2067ZM497.423 31.4453C493.415 31.4453 490.811 33.3147 489.008 36.12V32.2467H482.129V64.168H489.075V46.2707C489.075 40.9947 491.345 38.056 495.885 38.056C497.289 38.056 498.759 38.256 500.228 38.8573L502.364 32.3133C500.828 31.712 498.824 31.4453 497.423 31.4453ZM311.367 34.784C308.027 32.58 303.419 31.4453 298.344 31.4453C290.263 31.4453 285.055 35.3187 285.055 41.6627C285.055 46.872 288.928 50.0773 296.072 51.0787L299.345 51.5467C303.152 52.08 304.955 53.0827 304.955 54.8853C304.955 57.356 302.417 58.7587 297.676 58.7587C292.868 58.7587 289.395 57.2227 287.057 55.42L283.785 60.828C287.592 63.6333 292.4 64.9693 297.609 64.9693C306.825 64.9693 312.167 60.628 312.167 54.552C312.167 48.9413 307.96 46.0027 301.015 45.0013L297.743 44.5333C294.737 44.1333 292.333 43.5333 292.333 41.396C292.333 39.0587 294.604 37.656 298.411 37.656C302.484 37.656 306.424 39.192 308.361 40.3933L311.367 34.784ZM400.921 31.4453C396.915 31.4453 394.309 33.3147 392.507 36.12V32.2467H385.628V64.168H392.573V46.2707C392.573 40.9947 394.844 38.056 399.385 38.056C400.788 38.056 402.257 38.256 403.727 38.8573L405.864 32.3133C404.328 31.712 402.324 31.4453 400.921 31.4453ZM341.685 32.2467H330.332V22.5627H323.32V32.2467H316.843V38.5907H323.32V53.1493C323.32 60.5627 326.192 64.9693 334.407 64.9693C337.412 64.9693 340.884 64.0347 343.088 62.4987L341.084 56.5547C339.013 57.7573 336.743 58.3587 334.94 58.3587C331.468 58.3587 330.332 56.2213 330.332 53.016V38.5907H341.685V32.2467ZM237.905 64.168V44.1333C237.905 36.5867 233.097 31.512 225.351 31.4453C221.277 31.3787 217.069 32.6467 214.131 37.1213C211.928 33.5827 208.455 31.4453 203.58 31.4453C200.173 31.4453 196.835 32.4467 194.231 36.1867V32.2467H187.284V64.168H194.296V46.4707C194.296 40.928 197.369 37.9893 202.111 37.9893C206.719 37.9893 209.056 40.9947 209.056 46.404V64.168H216.068V46.4707C216.068 40.928 219.273 37.9893 223.881 37.9893C228.623 37.9893 230.893 40.9947 230.893 46.404V64.168H237.905ZM153.832 77.7427V75.88H153.345L152.785 77.1613L152.225 75.88H151.739V77.7427H152.083V76.3373L152.608 77.5493H152.964L153.488 76.3347V77.7427H153.832ZM150.751 77.7427V76.1973H151.373V75.8827H149.787V76.1973H150.411V77.7427H150.751Z" fill="black"/>
</svg>
