<svg width="504" height="151" viewBox="0 0 504 151" fill="none" xmlns="http://www.w3.org/2000/svg">
<g clip-path="url(#clip0_433_76)">
<path d="M147.734 0H3.1281C2.2363 0 1.38099 0.353237 0.750649 0.982853C0.119636 1.6118 -0.234375 2.46521 -0.234375 3.3557V147.641C-0.234375 148.531 0.119636 149.384 0.750649 150.013C1.38099 150.643 2.2363 150.996 3.1281 150.996H147.734C148.626 150.996 149.481 150.643 150.112 150.013C150.743 149.384 151.097 148.531 151.097 147.641V3.3557C151.097 2.46521 150.743 1.6118 150.112 0.982853C149.481 0.353237 148.626 0 147.734 0ZM100.653 97.3087C100.653 98.1985 100.299 99.052 99.6677 99.6816C99.0374 100.311 98.1821 100.664 97.2903 100.664H53.572C52.6802 100.664 51.8249 100.311 51.1939 99.6816C50.5636 99.052 50.2095 98.1985 50.2095 97.3087V53.6872C50.2095 52.7974 50.5636 51.944 51.1939 51.315C51.8249 50.6854 52.6802 50.3322 53.572 50.3322H97.2903C98.1821 50.3322 99.0374 50.6854 99.6677 51.315C100.299 51.944 100.653 52.7974 100.653 53.6872V97.3087Z" fill="white"/>
<path d="M450.483 50.3379H406.765C404.908 50.3379 403.402 51.8398 403.402 53.6929V97.3144C403.402 99.1675 404.908 100.67 406.765 100.67H450.483C452.34 100.67 453.846 99.1675 453.846 97.3144V53.6929C453.846 51.8398 452.34 50.3379 450.483 50.3379Z" fill="white"/>
<path d="M400.018 0.00390625H356.301C354.443 0.00390625 352.938 1.50581 352.938 3.35961V46.9804C352.938 48.8335 354.443 50.3361 356.301 50.3361H400.018C401.876 50.3361 403.381 48.8335 403.381 46.9804V3.35961C403.381 1.50581 401.876 0.00390625 400.018 0.00390625Z" fill="white"/>
<path d="M500.906 0.00390625H457.187C455.33 0.00390625 453.824 1.50581 453.824 3.35961V46.9804C453.824 48.8335 455.33 50.3361 457.187 50.3361H500.906C502.763 50.3361 504.268 48.8335 504.268 46.9804V3.35961C504.268 1.50581 502.763 0.00390625 500.906 0.00390625Z" fill="white"/>
<path d="M400.018 100.668H356.301C354.443 100.668 352.938 102.17 352.938 104.023V147.644C352.938 149.498 354.443 151 356.301 151H400.018C401.876 151 403.381 149.498 403.381 147.644V104.023C403.381 102.17 401.876 100.668 400.018 100.668Z" fill="white"/>
<path d="M500.906 100.668H457.187C455.33 100.668 453.824 102.17 453.824 104.023V147.644C453.824 149.498 455.33 151 457.187 151H500.906C502.763 151 504.268 149.498 504.268 147.644V104.023C504.268 102.17 502.763 100.668 500.906 100.668Z" fill="white"/>
<path d="M324.288 0.00390625H280.57C278.713 0.00390625 277.207 1.50581 277.207 3.35961V46.9804C277.207 48.8335 278.713 50.3361 280.57 50.3361H324.288C326.145 50.3361 327.651 48.8335 327.651 46.9804V3.35961C327.651 1.50581 326.145 0.00390625 324.288 0.00390625Z" fill="white"/>
<path d="M324.288 100.668H280.57C278.713 100.668 277.207 102.17 277.207 104.023V147.644C277.207 149.498 278.713 151 280.57 151H324.288C326.145 151 327.651 149.498 327.651 147.644V104.023C327.651 102.17 326.145 100.668 324.288 100.668Z" fill="white"/>
<path d="M277.208 53.6495C277.208 52.7597 276.853 51.9062 276.223 51.2773C275.592 50.6477 274.737 50.2945 273.845 50.2945H226.764V3.3557C226.764 2.46521 226.41 1.6118 225.779 0.982853C225.148 0.353237 224.293 0 223.401 0H179.683C178.791 0 177.936 0.353237 177.305 0.982853C176.674 1.6118 176.32 2.46521 176.32 3.3557V147.565C176.32 148.455 176.674 149.309 177.305 149.938C177.936 150.567 178.791 150.92 179.683 150.92H223.401C224.293 150.92 225.148 150.567 225.779 149.938C226.41 149.309 226.764 148.455 226.764 147.565V100.627H273.845C274.737 100.627 275.592 100.273 276.223 99.6438C276.853 99.0142 277.208 98.1608 277.208 97.271V53.6495Z" fill="white"/>
</g>
<defs>
<clipPath id="clip0_433_76">
<rect width="504" height="151" fill="white"/>
</clipPath>
</defs>
</svg>
