<svg width="581" height="145" viewBox="0 0 581 145" fill="none" xmlns="http://www.w3.org/2000/svg">
<g clip-path="url(#clip0_1764_17)">
<path d="M562.915 113.544V106.154C562.915 106.154 562.886 106.081 562.857 106.081H560.069C560.069 106.081 559.996 106.052 559.996 106.022V104.948C559.996 104.948 560.026 104.89 560.069 104.89H567.039C567.039 104.89 567.097 104.92 567.097 104.948V106.022C567.097 106.022 567.068 106.081 567.039 106.081H564.251C564.251 106.081 564.193 106.11 564.193 106.154V113.544C564.193 113.544 564.164 113.602 564.135 113.602H562.974C562.974 113.602 562.915 113.573 562.915 113.544Z" fill="#122733"/>
<path d="M567.504 113.532L569.377 104.937C569.377 104.937 569.421 104.879 569.449 104.879H570.858C570.858 104.879 570.916 104.879 570.931 104.937L572.963 111.79C572.992 111.878 573.051 111.878 573.079 111.79L575.098 104.937C575.098 104.937 575.141 104.879 575.185 104.879H576.593C576.593 104.879 576.652 104.908 576.665 104.937L578.539 113.532C578.539 113.532 578.51 113.605 578.48 113.605H577.363C577.363 113.605 577.305 113.576 577.29 113.547L575.868 106.941C575.838 106.868 575.78 106.868 575.766 106.941L573.777 113.547C573.777 113.547 573.733 113.605 573.704 113.605H572.339C572.339 113.605 572.28 113.576 572.267 113.547L570.277 106.941C570.277 106.868 570.19 106.868 570.176 106.941L568.752 113.547C568.752 113.547 568.708 113.605 568.679 113.605H567.562C567.562 113.605 567.489 113.576 567.504 113.532Z" fill="#122733"/>
<path d="M511.806 144.863C504.096 144.863 500.248 144.064 496.385 142.772C495.905 142.612 495.586 142.133 495.746 141.654L499.928 120.613C500.087 119.974 500.407 119.655 501.046 119.814C508.307 121.251 518.544 121.862 521.927 111.784C521.927 111.784 521.986 110.782 521.666 109.984L489.386 26.6326C489.226 25.9946 489.386 25.5156 490.024 25.5156H516.046C516.526 25.5156 517.005 25.6746 517.164 26.3146L534.996 78.6616C535.475 79.9396 536.114 79.9396 536.608 78.6616L552.988 26.3146C553.147 25.6756 553.626 25.5156 554.105 25.5156H580.127C580.766 25.5156 581.085 25.9946 580.926 26.6326L548.094 115.473C540.089 137.312 526.254 144.863 511.806 144.863Z" fill="#122733"/>
<path d="M58.5869 115.307C25.0149 115.307 0.116943 92.3373 0.116943 57.4803C0.116943 22.6233 25.0149 -0.34668 58.5869 -0.34668C92.1589 -0.34668 116.735 22.6233 116.735 57.4803C116.735 92.3373 91.9969 115.307 58.5869 115.307ZM58.4259 89.7673C75.7739 89.7673 88.6249 77.0773 88.6249 57.4803C88.6249 37.8833 75.7749 25.1933 58.4259 25.1933C41.2389 25.1933 28.2269 37.8833 28.2269 57.4803C28.2269 77.0773 41.2379 89.7673 58.4259 89.7673Z" fill="#122733"/>
<path d="M126.208 113.71C125.725 113.71 125.244 113.39 125.244 112.747V26.488C125.244 25.845 125.565 25.524 126.208 25.524H145.965C146.447 25.524 146.768 25.685 146.929 26.328L149.659 35.965C149.981 37.089 150.784 36.929 151.588 35.965C157.852 27.452 166.525 23.918 176.806 23.918C198.17 23.918 211.021 39.017 211.021 63.433V112.747C211.021 113.39 210.699 113.71 210.057 113.71H185.641C185.159 113.71 184.677 113.39 184.677 112.747V67.61C184.677 55.563 179.215 48.656 168.454 48.656C157.692 48.656 151.588 56.045 151.588 68.092V112.748C151.588 113.23 151.266 113.712 150.624 113.712H126.208V113.71Z" fill="#122733"/>
<path d="M271.111 115.303C237.538 115.303 218.424 95.5453 218.424 69.2023C218.424 42.8583 237.538 23.9033 264.524 23.9033C290.065 23.9033 307.253 41.0903 307.253 64.0613C307.253 68.5583 306.61 72.4133 305.486 76.1083C305.324 76.5903 304.843 76.9113 304.361 76.9113H247.82C247.177 76.9113 246.534 77.3933 247.016 78.5173C250.228 87.3533 259.867 91.8503 272.877 91.8503C280.267 91.8503 287.013 90.4043 293.277 87.6733C293.76 87.5133 294.241 87.6733 294.402 88.1553L300.988 107.431C301.149 108.073 300.988 108.394 300.506 108.556C291.029 113.374 281.551 115.303 271.111 115.303ZM279.946 58.9223C280.588 58.9223 281.07 58.2793 280.909 57.4763C279.624 49.6053 272.877 44.7863 263.883 44.7863C254.888 44.7863 248.14 49.6053 246.855 57.4763C246.694 58.2793 247.177 58.9223 247.82 58.9223H279.946Z" fill="#122733"/>
<path d="M317.419 113.707C316.776 113.707 316.455 113.385 316.455 112.744V2.22864C316.455 1.58564 316.776 1.26562 317.419 1.26562H365.448C391.629 1.26562 410.263 15.4006 410.263 41.1016C410.263 66.9636 391.629 81.2586 365.448 81.2586H344.565C343.922 81.2586 343.602 81.5796 343.602 82.2236V112.744C343.602 113.385 343.28 113.707 342.638 113.707H317.419ZM343.602 54.2726C343.602 54.7546 343.922 55.2366 344.565 55.2366H364.002C375.245 55.2366 382.152 50.4166 382.152 41.2616C382.152 32.1066 375.245 27.1266 364.002 27.1266H344.565C344.083 27.1266 343.602 27.4466 343.602 28.0896V54.2726Z" fill="#122733"/>
<path d="M439.676 115.332C421.846 115.332 409.316 104.248 409.316 88.3446C409.316 69.3896 426.665 61.0376 449.474 61.0376H463.931C464.573 61.0376 464.895 60.7176 464.895 60.0746V59.2716C464.895 50.5976 455.578 47.3846 445.137 47.3846C437.749 47.3846 429.877 48.9906 424.094 51.0786C423.292 51.3996 422.97 51.0786 422.81 50.5966L416.223 31.3206C416.063 30.8376 416.223 30.5176 416.866 30.1966C424.737 26.8236 434.375 23.9326 446.1 23.9326C472.283 23.9326 490.756 36.7826 490.756 65.2146V112.763C490.756 113.244 490.435 113.726 489.792 113.726H470.035C469.553 113.726 469.232 113.566 469.072 112.923L466.662 104.41C466.34 103.284 465.537 103.446 464.735 104.41C457.666 113.083 447.707 115.332 439.676 115.332ZM448.992 95.0916C459.112 95.0916 464.895 89.6296 464.895 80.9556V79.9926C464.895 79.3496 464.573 79.0286 463.931 79.0286H449.474C442.085 79.0286 436.463 81.4376 436.463 86.8986C436.463 92.1996 441.764 95.0916 448.992 95.0916Z" fill="#122733"/>
</g>
<defs>
<clipPath id="clip0_1764_17">
<rect width="581" height="145" fill="white"/>
</clipPath>
</defs>
</svg>
