<svg width="600" height="146" viewBox="0 0 600 146" fill="none" xmlns="http://www.w3.org/2000/svg">
<path d="M4.87303 101.115H84.1147C86.8035 101.115 88.9877 103.298 88.9877 105.988V112.422C88.9877 115.111 86.8045 117.296 84.1147 117.296H4.87202C2.18321 117.296 0 115.112 0 112.424V105.989C0 103.3 2.18321 101.115 4.87303 101.115Z" fill="currentColor"/>
<path d="M82.8507 57.2922L62.1896 45.3629C61.5151 44.9736 61.5151 44.0008 62.1896 43.6115L82.8507 31.6832C85.1815 30.3373 85.9793 27.3573 84.6344 25.0264L81.4168 19.4546C80.0708 17.1238 77.0908 16.3259 74.761 17.6708L54.0999 29.5991C53.4254 29.9884 52.583 29.502 52.583 28.7234V4.86687C52.583 2.17603 50.4019 -0.00616455 47.71 -0.00616455H41.2757C38.5848 -0.00616455 36.4036 2.17502 36.4036 4.86586V28.7234C36.4036 29.502 35.5613 29.9884 34.8868 29.5991L14.2257 17.6708C11.8949 16.3249 8.91483 17.1238 7.56992 19.4546L4.35325 25.0264C3.00733 27.3573 3.80619 30.3373 6.13703 31.6822L26.7981 43.6105C27.4726 43.9998 27.4726 44.9726 26.7981 45.3619L6.13703 57.2912C3.80619 58.6371 3.00834 61.6171 4.35325 63.947L7.56992 69.5188C8.91584 71.8496 11.8959 72.6474 14.2257 71.3025L34.8868 59.3733C35.5613 58.9839 36.4036 59.4703 36.4036 60.249V84.1065C36.4036 86.7973 38.5848 88.9785 41.2757 88.9785H47.71C50.4008 88.9785 52.583 86.7973 52.583 84.1055V60.248C52.583 59.4693 53.4254 58.9829 54.0999 59.3722L74.761 71.3015C77.0918 72.6474 80.0708 71.8486 81.4168 69.5188L84.6344 63.946C85.9804 61.6151 85.1815 58.6351 82.8507 57.2902V57.2922Z" fill="currentColor"/>
<path d="M137.532 60.3299C141.783 53.6103 150.561 48.9446 159.614 48.9446C178.128 48.9446 192.802 64.307 192.802 83.9204C192.802 103.534 178.129 118.891 159.614 118.891C150.561 118.891 141.784 114.23 137.532 107.51V144.976C137.532 145.535 137.079 145.988 136.521 145.988H122.357C121.799 145.988 121.346 145.535 121.346 144.976V51.6041C121.346 51.0459 121.799 50.5929 122.357 50.5929H136.521C137.079 50.5929 137.532 51.0459 137.532 51.6041V60.3299ZM156.731 63.2078C145.485 63.2078 136.842 72.1257 136.842 83.9204C136.842 95.7152 145.485 104.628 156.731 104.628C168.116 104.628 176.754 95.7152 176.754 83.9204C176.754 72.1257 168.116 63.2078 156.731 63.2078Z" fill="currentColor"/>
<path d="M254.821 93.9507C257.053 95.3886 262.904 99.1554 265.06 100.543C265.516 100.836 265.664 101.443 265.387 101.91C258.867 112.894 247.859 118.891 235.289 118.891C216.495 118.891 200.723 103.668 200.723 83.9204C200.723 64.1715 216.495 48.9446 235.014 48.9446C254.481 48.9446 268.219 64.0066 267.947 86.8964C267.941 87.4496 267.482 87.8975 266.93 87.8975H215.949C217.594 98.4586 225.686 105.044 235.288 105.044C244.223 105.044 249.258 101.137 253.404 94.2894C253.703 93.7959 254.335 93.6382 254.821 93.9507ZM216.634 76.7863H251.88C250.786 69.2427 244.885 62.6627 235.014 62.6627C226.371 62.6627 219.237 68.1486 216.634 76.7863Z" fill="currentColor"/>
<path d="M319.409 51.5647C319.553 51.0672 319.298 50.5464 318.821 50.3462C317.382 49.7425 315.704 49.3592 313.066 49.3592C304.703 49.3592 297.984 54.4305 294.692 61.0145V51.6041C294.692 51.0459 294.239 50.5929 293.68 50.5929H279.516C278.958 50.5929 278.505 51.0459 278.505 51.6041V116.237C278.505 116.795 278.958 117.248 279.516 117.248H293.68C294.239 117.248 294.692 116.795 294.692 116.237V83.2359C294.692 72.3997 301.411 65.2656 311.148 65.2656C312.292 65.2656 313.379 65.3445 314.426 65.5053C314.936 65.5831 315.426 65.2929 315.569 64.7984C316.338 62.149 318.651 54.1736 319.409 51.5647Z" fill="currentColor"/>
<path d="M321.891 100.321L334.013 95.9235C334.541 95.7324 335.111 96.0125 335.309 96.5383C337.501 102.328 341.895 106.277 348.139 106.277C353.075 106.277 357.601 103.26 357.601 97.774C357.601 85.2896 324.958 93.6574 324.958 69.7928C324.958 58.272 334.695 48.9456 348.409 48.9456C359.655 48.9456 368.09 55.0705 371.261 63.8731C371.454 64.4081 371.142 64.9966 370.599 65.1655L358.389 68.9565C357.874 69.1163 357.342 68.8291 357.158 68.3225C355.536 63.858 352.361 61.5656 347.865 61.5656C343.614 61.5656 340.047 64.308 340.047 68.6997C340.047 80.6299 372.965 72.4017 372.965 96.8114C372.965 109.705 361.17 118.893 347.726 118.893C335.596 118.893 324.76 112.159 321.266 101.579C321.096 101.066 321.383 100.508 321.891 100.324V100.321Z" fill="currentColor"/>
<path d="M415.106 48.9446C434.305 48.9446 450.491 64.1715 450.491 83.9204C450.491 103.669 434.305 118.891 415.106 118.891C395.902 118.891 379.855 103.668 379.855 83.9204C379.855 64.1715 395.902 48.9446 415.106 48.9446ZM415.106 104.628C426.487 104.628 435.129 95.7152 435.129 83.9204C435.129 72.1257 426.486 63.2078 415.106 63.2078C403.86 63.2078 395.217 72.1257 395.217 83.9204C395.217 95.7152 403.86 104.628 415.106 104.628Z" fill="currentColor"/>
<path d="M490.274 63.3888C481.356 63.3888 475.462 70.2478 475.462 80.8049V116.278C475.462 116.836 475.009 117.289 474.451 117.289H460.287C459.729 117.289 459.276 116.836 459.276 116.278V51.6456C459.276 51.0874 459.729 50.6344 460.287 50.6344H474.451C475.009 50.6344 475.462 51.0874 475.462 51.6456V59.5472C479.849 53.3768 486.708 48.9861 496.035 48.9861C511.118 48.9861 519.896 59.4127 519.896 73.1258V116.278C519.896 116.836 519.443 117.289 518.885 117.289H504.726C504.167 117.289 503.714 116.836 503.714 116.278V77.5175C503.714 68.8746 498.779 63.3898 490.275 63.3898L490.274 63.3888Z" fill="currentColor"/>
<path d="M600 51.6041V116.237C600 116.795 599.547 117.248 598.989 117.248H584.825C584.267 117.248 583.814 116.795 583.814 116.237V107.511C579.702 114.231 570.924 118.892 561.871 118.892C543.357 118.892 528.679 103.535 528.679 83.9214C528.679 64.308 543.357 48.9456 561.871 48.9456C570.924 48.9456 579.701 53.6114 583.814 60.3309V51.6051C583.814 51.0469 584.267 50.5939 584.825 50.5939H598.989C599.547 50.5939 600 51.0469 600 51.6051V51.6041ZM564.615 104.628C576 104.628 584.638 95.7152 584.638 83.9204C584.638 72.1256 576 63.2078 564.615 63.2078C553.369 63.2078 544.726 72.1256 544.726 83.9204C544.726 95.7152 553.369 104.628 564.615 104.628Z" fill="currentColor"/>
</svg>




