<svg xmlns="http://www.w3.org/2000/svg" viewBox="0 0 1696 600"><path fill="currentColor" d="M982.44,115.79v245.22c0,126.02-67.55,141.35-135.67,141.35-121.48,0-153.27-61.31-153.27-147.02V115.79h-42.57v-24.98h176.54v24.98h-45.98v231.59c0,85.15,21.57,123.18,78.9,123.75,59.04,.57,87.42-27.25,87.42-115.8V115.79h-43.14v-24.98h118.64v24.98h-40.88Zm62.45,355.91h46.55V115.79h-43.71v-24.98h196.41c91.39,0,122.04,49.95,122.04,95.37,0,55.06-56.77,89.69-100.48,93.66,89.69,10.78,116.37,63,116.37,103.31,0,82.88-77.77,113.53-145.89,113.53h-191.3v-24.98Zm172.56-202.08c45.42,0,65.85-33.49,65.85-79.47,0-37.46-17.6-74.93-60.74-74.93h-45.98v154.4h40.87Zm-5.11,202.65c57.9,0,85.15-32.92,85.15-89.12s-24.41-89.69-77.77-89.69h-43.14v178.81h35.76Zm438.23-270.2c-10.22-65.84-43.14-91.96-87.99-91.96-39.17,0-65.85,22.7-65.85,62.44,0,37.47,45.98,57.33,87.42,70.39,69.82,21.57,111.83,55.63,111.83,133.39,0,71.52-55.63,126.02-143.05,126.02-36.9,0-87.98-7.38-118.64-25.54l-3.97-106.72h26.12c5.11,64.72,43.14,107.29,99.34,107.29,43.14,0,70.95-28.38,70.95-69.82s-36.33-64.15-88.55-81.17c-57.9-18.73-107.29-56.2-107.29-122.04,0-73.22,57.91-119.21,136.81-119.21,36.33,0,78.91,9.65,104.45,24.41l3.97,92.52h-25.55Z"/><path fill="currentColor" d="M512.76,332.93c-34.79-28.17-85.04-25.1-118.43,5.17l-7.89-6.39,12.9-15.93c-1.53-4-4.1-7.66-7.66-10.54-3.56-2.89-7.68-4.64-11.91-5.31l-12.9,15.93-70.42-57.03,74.15-60.04,10.57,13.05-13.05,10.57,10.57,13.05,13.05-10.57,10.57,13.05-13.05,10.57,10.57,13.05,39.61-32.07-37.02-20.94,10.72-8.68,34.2,19.37-11.83-37.48,10.72-8.68,12.79,40.56,39.61-32.07-10.57-13.05-13.05,10.57-10.57-13.05,13.05-10.57-10.57-13.05-13.05,10.57-10.57-13.05,30.29-24.53c-.79-5.03-2.88-9.93-6.32-14.17-3.44-4.24-7.79-7.3-12.55-9.12l-167.09,135.31V4.01c-4.41-2.55-9.53-4.01-14.99-4.01s-10.58,1.46-14.99,4.01V42.98h-16.79V26.2h-16.79v16.79h-16.79V26.2h-16.79v50.96l39.57-15.59v13.79l-36.57,14.39,36.57,14.39v13.79l-39.57-15.59v50.96h16.79v-16.79h16.79v16.79h16.79v-16.79h16.79v90.89L90.56,92.1c-4.76,1.82-9.11,4.88-12.55,9.12-3.44,4.24-5.52,9.14-6.32,14.17l30.29,24.53-10.57,13.05-13.05-10.57-10.57,13.05,13.05,10.57-10.57,13.05-13.05-10.57-10.57,13.05,39.61,32.07,12.79-40.56,10.72,8.68-11.83,37.48,34.2-19.37,10.72,8.68-37.02,20.94,39.61,32.07,10.57-13.05-13.05-10.57,10.57-13.05,13.05,10.57,10.57-13.05-13.05-10.57,10.57-13.05,74.15,60.04-70.42,57.03-12.9-15.93c-4.23,.67-8.34,2.42-11.91,5.31-3.56,2.89-6.13,6.55-7.66,10.54l12.9,15.93-7.89,6.39c-33.39-30.27-83.64-33.34-118.43-5.17-34.79,28.17-42.23,77.97-19.57,116.91l-11.76,9.52c.79,5.03,2.88,9.93,6.32,14.17,3.44,4.24,7.79,7.3,12.55,9.12l11.76-9.52c33.39,30.27,83.64,33.34,118.43,5.17,34.79-28.17,42.23-77.97,19.57-116.91l7.89-6.39,12.9,15.93c4.23-.67,8.34-2.42,11.91-5.31,3.56-2.89,6.13-6.55,7.66-10.54l-12.9-15.93,60.38-48.9v77.7h-20.5c-2.14,3.7-3.37,8-3.37,12.59s1.23,8.89,3.37,12.59h20.5v10.15c-44.53,6.9-78.55,44.02-78.55,88.78s34.01,81.88,78.55,88.78v15.13c4.41,2.55,9.53,4.01,14.99,4.01s10.58-1.46,14.99-4.01v-15.13c44.53-6.9,78.55-44.02,78.55-88.78s-34.01-81.88-78.55-88.78v-10.15h20.5c2.14-3.7,3.37-8,3.37-12.59s-1.23-8.89-3.37-12.59h-20.5v-77.7l60.38,48.9-12.9,15.93c1.53,4,4.1,7.66,7.66,10.54,3.56,2.89,7.68,4.64,11.91,5.31l12.9-15.93,7.89,6.39c-22.66,38.95-15.22,88.74,19.57,116.91,34.79,28.17,85.04,25.1,118.43-5.17l11.76,9.52c4.76-1.82,9.11-4.88,12.55-9.12,3.44-4.24,5.52-9.14,6.32-14.17l-11.76-9.52c22.66-38.95,15.22-88.74-19.57-116.91Zm-377.62,126.74c-24.52,19.85-59.7,18.29-84.4-1.87l12.78-10.35c-.79-5.03-2.88-9.93-6.32-14.17-3.44-4.24-7.79-7.3-12.55-9.12l-12.78,10.35c-14.59-28.34-8.79-63.09,15.72-82.94,19.3-15.63,44.41-16.62,56.08-2.21,8.34,10.29,6.75,25.4-3.55,33.73-10.29,8.34-25.4,6.75-33.73-3.55-4.72-5.83-6.26-13.19-4.84-20l-20.7,16.76c.9,7.33,3.8,14.5,8.78,20.66,8.53,10.53,21.23,15.7,33.8,15.06-3.24,12.17-.83,25.66,7.7,36.2,4.99,6.16,11.4,10.49,18.38,12.89l20.7-16.76c-6.95-.03-13.84-3.06-18.56-8.89-8.34-10.29-6.75-25.4,3.55-33.73,10.29-8.34,25.4-6.75,33.73,3.55,11.67,14.41,5.48,38.76-13.82,54.39Zm173.47-12.56c18.54,0,33.58,20.13,33.58,44.97,0,31.54-23.36,57.91-54.56,64.41v-16.45c-4.41-2.55-9.53-4.01-14.99-4.01s-10.58,1.46-14.99,4.01v16.45c-31.21-6.5-54.56-32.87-54.56-64.41,0-24.84,15.03-44.97,33.58-44.97,13.25,0,23.98,10.74,23.98,23.98s-10.74,23.98-23.98,23.98c-7.5,0-14.19-3.44-18.59-8.83v26.63c6.26,3.91,13.66,6.18,21.59,6.18,13.55,0,25.56-6.61,32.98-16.79,7.41,10.18,19.42,16.79,32.98,16.79,7.93,0,15.33-2.26,21.59-6.18v-26.63c-4.4,5.39-11.09,8.83-18.59,8.83-13.25,0-23.98-10.74-23.98-23.98s10.74-23.98,23.98-23.98Zm204.78-12.6l-12.78-10.35c-4.76,1.82-9.11,4.88-12.55,9.12-3.44,4.24-5.52,9.14-6.32,14.17l12.78,10.35c-24.69,20.16-59.88,21.72-84.4,1.87-19.3-15.63-25.49-39.98-13.82-54.39,8.34-10.29,23.44-11.88,33.73-3.55,10.29,8.34,11.88,23.44,3.55,33.73-4.72,5.83-11.6,8.86-18.56,8.89l20.7,16.76c6.98-2.4,13.4-6.73,18.38-12.89,8.53-10.53,10.95-24.03,7.7-36.2,12.57,.64,25.27-4.53,33.8-15.06,4.99-6.16,7.89-13.33,8.78-20.66l-20.7-16.76c1.42,6.81-.12,14.17-4.84,20-8.34,10.29-23.44,11.88-33.73,3.55-10.29-8.34-11.88-23.44-3.55-33.73,11.67-14.41,36.78-13.42,56.08,2.21,24.51,19.85,30.31,54.6,15.72,82.94Z"/></svg>




